<!-- Generated by readme-aura https://github.com/collectioneur/readme-aura -->
<svg width="860" height="168" viewBox="0 0 860 168" xmlns="http://www.w3.org/2000/svg"><defs><clipPath id="satori_bc-id"><path x="0" y="0" width="860" height="168" d="M16,0 h828 a16,16 0 0 1 16,16 v136 a16,16 0 0 1 -16,16 h-828 a16,16 0 0 1 -16,-16 v-136 a16,16 0 0 1 16,-16"/></clipPath></defs><clipPath id="satori_cp-id"><path x="0" y="0" width="860" height="168" d="M16,0 h828 a16,16 0 0 1 16,16 v136 a16,16 0 0 1 -16,16 h-828 a16,16 0 0 1 -16,-16 v-136 a16,16 0 0 1 16,-16"/></clipPath><mask id="satori_om-id"><rect x="1" y="1" width="858" height="166" fill="#fff"/><path width="860" height="168" fill="none" stroke="#000" stroke-width="2" d="M4.686,4.686 A16,16 0 0 1 16,0 h828 a16,16 0 0 1 16,16 v136 a16,16 0 0 1 -16,16 h-828 a16,16 0 0 1 -16,-16 v-136 A16,16 0 0 1 4.686,4.686"/></mask><path x="0" y="0" width="860" height="168" fill="#08080c" d="M16,0 h828 a16,16 0 0 1 16,16 v136 a16,16 0 0 1 -16,16 h-828 a16,16 0 0 1 -16,-16 v-136 a16,16 0 0 1 16,-16"/><path width="860" height="168" clip-path="url(#satori_bc-id)" fill="none" stroke="rgba(110,80,220,0.18)" stroke-width="2" d="M4.686,4.686 A16,16 0 0 1 16,0 h828 a16,16 0 0 1 16,16 v136 a16,16 0 0 1 -16,16 h-828 a16,16 0 0 1 -16,-16 v-136 A16,16 0 0 1 4.686,4.686"/><clipPath id="satori_cp-id-0" clip-path="url(#satori_cp-id)"><rect x="1" y="1" width="860" height="168"/></clipPath><mask id="satori_om-id-0"><rect x="1" y="1" width="860" height="168" fill="#fff" mask="url(#satori_om-id)"/></mask><svg x="1" y="1" width="860" height="168" preserveAspectRatio="none" clip-path="url(#satori_cp-id-0)" mask="url(#satori_om-id-0)"><defs><radialGradient id="g1" cx="50%" cy="50%" r="50%"><stop offset="0%" stop-color="rgba(115,20,215,0.68)"></stop><stop offset="42%" stop-color="rgba(85,15,175,0.30)"></stop><stop offset="70%" stop-color="rgba(85,15,175,0)"></stop></radialGradient><radialGradient id="g2" cx="50%" cy="50%" r="50%"><stop offset="0%" stop-color="rgba(55,55,255,0.55)"></stop><stop offset="45%" stop-color="rgba(35,45,210,0.22)"></stop><stop offset="70%" stop-color="rgba(35,45,210,0)"></stop></radialGradient><radialGradient id="g3" cx="50%" cy="50%" r="50%"><stop offset="0%" stop-color="rgba(0,130,255,0.42)"></stop><stop offset="50%" stop-color="rgba(0,100,220,0.16)"></stop><stop offset="70%" stop-color="rgba(0,100,220,0)"></stop></radialGradient><radialGradient id="g4" cx="50%" cy="50%" r="50%"><stop offset="0%" stop-color="rgba(0,185,240,0.32)"></stop><stop offset="70%" stop-color="rgba(0,185,240,0)"></stop></radialGradient><radialGradient id="g5" cx="50%" cy="50%" r="50%"><stop offset="0%" stop-color="rgba(100,25,205,0.42)"></stop><stop offset="70%" stop-color="rgba(100,25,205,0)"></stop></radialGradient><radialGradient id="g6" cx="50%" cy="50%" r="50%"><stop offset="0%" stop-color="rgba(60,80,255,0.35)"></stop><stop offset="70%" stop-color="rgba(60,80,255,0)"></stop></radialGradient></defs><ellipse id="glow-1" cx="170" cy="168" rx="260" ry="170" fill="url(#g1)"></ellipse><ellipse id="glow-2" cx="320" cy="178" rx="220" ry="140" fill="url(#g2)"></ellipse><ellipse id="glow-3" cx="460" cy="178" rx="190" ry="130" fill="url(#g3)"></ellipse><ellipse id="glow-4" cx="590" cy="188" rx="160" ry="110" fill="url(#g4)"></ellipse><ellipse id="glow-5" cx="750" cy="188" rx="140" ry="100" fill="url(#g5)"></ellipse><ellipse id="glow-6" cx="420" cy="138" rx="100" ry="80" fill="url(#g6)"></ellipse><style>

         @keyframes float-slow {
           0%, 100% { transform: translateX(0px); opacity: 0.8; }
           50% { transform: translateX(350px); opacity: 1.2; }
         }
         @keyframes float-medium {
           0%, 100% { transform: translateX(0px); opacity: 0.7; }
           50% { transform: translateX(-250px); opacity: 1.1; }
         }
         @keyframes float-fast {
           0%, 100% { transform: translateX(0px); opacity: 0.9; }
           50% { transform: translateX(200px); opacity: 0.6; }
         }
         @keyframes float-diagonal {
           0%, 100% { transform: translate(0px, 0px); opacity: 0.75; }
           50% { transform: translate(120px, 30px); opacity: 1.0; }
         }
         @keyframes float-wave {
           0%, 100% { transform: translateX(0px); opacity: 0.65; }
           33% { transform: translateX(-160px); opacity: 0.9; }
           66% { transform: translateX(80px); opacity: 1.0; }
         }
         @keyframes float-pulse {
           0%, 100% { transform: scale(1); opacity: 0.8; }
           50% { transform: scale(1.3); opacity: 0.4; }
         }
         #glow-1 { animation: float-slow 9s ease-in-out infinite; }
         #glow-2 { animation: float-medium 12s ease-in-out infinite; }
         #glow-3 { animation: float-fast 8s ease-in-out infinite; }
         #glow-4 { animation: float-diagonal 11s ease-in-out infinite reverse; }
         #glow-5 { animation: float-wave 14s ease-in-out infinite reverse; }
         #glow-6 { animation: float-pulse 6s ease-in-out infinite; }
       
</style>
</svg><mask id="satori_om-id-0-0"><rect x="1" y="1" width="0" height="168" fill="#fff" mask="url(#satori_om-id)"/></mask><mask id="satori_om-id-0-0-0"><rect x="1" y="1" width="0" height="168" fill="#fff" mask="url(#satori_om-id)"/></mask><mask id="satori_om-id-0-0-0-0"><rect x="1" y="1" width="0" height="168" fill="#fff" mask="url(#satori_om-id)"/></mask><mask id="satori_om-id-0-0-0-1"><rect x="1" y="1" width="0" height="168" fill="#fff" mask="url(#satori_om-id)"/></mask><mask id="satori_om-id-0-0-0-2"><rect x="1" y="1" width="0" height="168" fill="#fff" mask="url(#satori_om-id)"/></mask><mask id="satori_om-id-0-0-1"><rect x="1" y="1" width="0" height="168" fill="#fff" mask="url(#satori_om-id)"/></mask><mask id="satori_om-id-0-0-1-0"><rect x="1" y="1" width="0" height="168" fill="#fff" mask="url(#satori_om-id)"/></mask><mask id="satori_om-id-0-0-1-1"><rect x="1" y="1" width="0" height="168" fill="#fff" mask="url(#satori_om-id)"/></mask><mask id="satori_om-id-0-0-1-2"><rect x="1" y="1" width="0" height="168" fill="#fff" mask="url(#satori_om-id)"/></mask><mask id="satori_om-id-0-0-2"><rect x="1" y="1" width="0" height="168" fill="#fff" mask="url(#satori_om-id)"/></mask><mask id="satori_om-id-0-0-2-0"><rect x="1" y="1" width="0" height="168" fill="#fff" mask="url(#satori_om-id)"/></mask><mask id="satori_om-id-0-0-2-1"><rect x="1" y="1" width="0" height="168" fill="#fff" mask="url(#satori_om-id)"/></mask><mask id="satori_om-id-0-0-2-2"><rect x="1" y="1" width="0" height="168" fill="#fff" mask="url(#satori_om-id)"/></mask><mask id="satori_om-id-0-0-3"><rect x="1" y="1" width="0" height="168" fill="#fff" mask="url(#satori_om-id)"/></mask><mask id="satori_om-id-0-0-3-0"><rect x="1" y="1" width="0" height="168" fill="#fff" mask="url(#satori_om-id)"/></mask><mask id="satori_om-id-0-0-3-1"><rect x="1" y="1" width="0" height="168" fill="#fff" mask="url(#satori_om-id)"/></mask><mask id="satori_om-id-0-0-4"><rect x="1" y="1" width="0" height="168" fill="#fff" mask="url(#satori_om-id)"/></mask><mask id="satori_om-id-0-0-4-0"><rect x="1" y="1" width="0" height="168" fill="#fff" mask="url(#satori_om-id)"/></mask><mask id="satori_om-id-0-0-4-1"><rect x="1" y="1" width="0" height="168" fill="#fff" mask="url(#satori_om-id)"/></mask><mask id="satori_om-id-0-0-5"><rect x="1" y="1" width="0" height="168" fill="#fff" mask="url(#satori_om-id)"/></mask><mask id="satori_om-id-0-0-5-0"><rect x="1" y="1" width="0" height="168" fill="#fff" mask="url(#satori_om-id)"/></mask><mask id="satori_om-id-0-0-5-1"><rect x="1" y="1" width="0" height="168" fill="#fff" mask="url(#satori_om-id)"/></mask><mask id="satori_om-id-0-1"><rect x="1" y="1" width="0" height="168" fill="#fff" mask="url(#satori_om-id)"/></mask><mask id="satori_om-id-0-2"><rect x="1" y="1" width="0" height="168" fill="#fff" mask="url(#satori_om-id)"/></mask><mask id="satori_om-id-0-3"><rect x="1" y="1" width="0" height="168" fill="#fff" mask="url(#satori_om-id)"/></mask><mask id="satori_om-id-0-4"><rect x="1" y="1" width="0" height="168" fill="#fff" mask="url(#satori_om-id)"/></mask><mask id="satori_om-id-0-5"><rect x="1" y="1" width="0" height="168" fill="#fff" mask="url(#satori_om-id)"/></mask><mask id="satori_om-id-0-6"><rect x="1" y="1" width="0" height="168" fill="#fff" mask="url(#satori_om-id)"/></mask><mask id="satori_om-id-1"><rect x="33" y="19" width="794" height="12" fill="#fff" mask="url(#satori_om-id)"/></mask><g mask="url(#satori_om-id)" clip-path="url(#satori_cp-id)"><path fill="rgba(155,140,210,0.5)" d="M35.6 23.0L33.4 23.0L33.4 21.7L39.3 21.7L39.3 23.0L37.1 23.0L37.1 29L35.6 29L35.6 23.0ZM48.2 29L43.3 29L43.3 21.7L48.2 21.7L48.2 23.0L44.8 23.0L44.8 24.7L47.9 24.7L47.9 25.9L44.8 25.9L44.8 27.8L48.2 27.8L48.2 29ZM55.6 29.1L55.6 29.1Q54.6 29.1 53.9 28.7Q53.1 28.2 52.6 27.4Q52.2 26.5 52.2 25.4L52.2 25.4Q52.2 24.2 52.7 23.3Q53.1 22.5 53.9 22.1Q54.6 21.6 55.6 21.6L55.6 21.6Q56.2 21.6 56.7 21.8Q57.3 22.0 57.7 22.3Q58.1 22.6 58.4 23.1Q58.6 23.6 58.7 24.2L58.7 24.2L57.2 24.2Q57.2 23.9 57.0 23.7Q56.9 23.4 56.7 23.3Q56.5 23.1 56.2 23.0Q55.9 23.0 55.6 23.0L55.6 23.0Q55.0 23.0 54.6 23.2Q54.2 23.5 54.0 24.1Q53.7 24.6 53.7 25.4L53.7 25.4Q53.7 26.2 54.0 26.7Q54.2 27.2 54.6 27.5Q55.0 27.8 55.6 27.8L55.6 27.8Q55.9 27.8 56.2 27.7Q56.5 27.6 56.7 27.4Q56.9 27.3 57.0 27.0Q57.2 26.8 57.2 26.5L57.2 26.5L58.7 26.5Q58.7 27.0 58.4 27.5Q58.2 27.9 57.8 28.3Q57.4 28.7 56.8 28.9Q56.3 29.1 55.6 29.1ZM64.3 29L62.8 29L62.8 21.7L64.3 21.7L64.3 24.7L67.5 24.7L67.5 21.7L69.0 21.7L69.0 29L67.5 29L67.5 25.9L64.3 25.9L64.3 29Z M81.3 29.1L81.3 29.1Q80.4 29.1 79.8 28.8Q79.1 28.6 78.8 28.0Q78.4 27.5 78.4 26.7L78.4 26.7L79.9 26.7Q79.9 27.1 80.1 27.4Q80.3 27.6 80.6 27.7Q80.9 27.8 81.3 27.8L81.3 27.8Q81.7 27.8 82.0 27.7Q82.3 27.6 82.5 27.4Q82.6 27.2 82.6 26.9L82.6 26.9Q82.6 26.7 82.5 26.5Q82.3 26.3 82.0 26.2Q81.8 26.1 81.4 26.0L81.4 26.0L80.6 25.8Q79.6 25.6 79.1 25.1Q78.6 24.6 78.6 23.8L78.6 23.8Q78.6 23.2 78.9 22.7Q79.3 22.2 79.9 21.9Q80.5 21.6 81.3 21.6L81.3 21.6Q82.1 21.6 82.7 21.9Q83.3 22.2 83.7 22.7Q84.0 23.2 84.0 23.8L84.0 23.8L82.6 23.8Q82.5 23.4 82.2 23.1Q81.9 22.9 81.3 22.9L81.3 22.9Q80.9 22.9 80.7 23.0Q80.4 23.1 80.3 23.3Q80.1 23.5 80.1 23.7L80.1 23.7Q80.1 24.0 80.3 24.2Q80.4 24.3 80.7 24.5Q81.0 24.6 81.3 24.6L81.3 24.6L81.9 24.8Q82.4 24.9 82.8 25.1Q83.2 25.3 83.5 25.5Q83.8 25.8 84.0 26.1Q84.1 26.5 84.1 26.9L84.1 26.9Q84.1 27.6 83.8 28.1Q83.5 28.6 82.8 28.8Q82.2 29.1 81.3 29.1ZM90.1 23.0L87.9 23.0L87.9 21.7L93.8 21.7L93.8 23.0L91.6 23.0L91.6 29L90.1 29L90.1 23.0ZM99.1 29L97.4 29L99.9 21.7L101.9 21.7L104.4 29L102.8 29L102.2 27.3L99.6 27.3L99.1 29ZM100.0 26.1L101.8 26.1L101.6 25.5Q101.4 24.8 101.2 24L101.2 24Q101.0 23.5 100.9 22.9L100.9 22.9Q100.7 23.5 100.6 24.0L100.6 24.0Q100.4 24.8 100.2 25.5L100.2 25.5L100.0 26.1ZM111.5 29.1L111.5 29.1Q110.5 29.1 109.8 28.7Q109.0 28.2 108.6 27.4Q108.1 26.5 108.1 25.4L108.1 25.4Q108.1 24.2 108.6 23.3Q109.0 22.5 109.8 22.1Q110.6 21.6 111.5 21.6L111.5 21.6Q112.1 21.6 112.7 21.8Q113.2 22.0 113.6 22.3Q114.0 22.6 114.3 23.1Q114.6 23.6 114.6 24.2L114.6 24.2L113.1 24.2Q113.1 23.9 112.9 23.7Q112.8 23.4 112.6 23.3Q112.4 23.1 112.1 23.0Q111.9 23.0 111.5 23.0L111.5 23.0Q111.0 23.0 110.5 23.2Q110.1 23.5 109.9 24.1Q109.6 24.6 109.6 25.4L109.6 25.4Q109.6 26.2 109.9 26.7Q110.1 27.2 110.5 27.5Q111.0 27.8 111.5 27.8L111.5 27.8Q111.8 27.8 112.1 27.7Q112.4 27.6 112.6 27.4Q112.8 27.3 112.9 27.0Q113.1 26.8 113.1 26.5L113.1 26.5L114.6 26.5Q114.6 27.0 114.3 27.5Q114.1 27.9 113.7 28.3Q113.3 28.7 112.8 28.9Q112.2 29.1 111.5 29.1ZM120.2 29L118.7 29L118.7 21.7L120.2 21.7L120.2 23.7L120.2 25.4Q120.2 25.3 120.3 25.3L120.3 25.3Q120.5 24.9 120.7 24.6Q121.0 24.2 121.3 23.8L121.3 23.8L123.1 21.7L124.9 21.7L122.2 24.9L125.0 29L123.3 29L121.2 25.9L120.2 26.9L120.2 29Z "/></g><mask id="satori_om-id-2"><rect x="33" y="45" width="794" height="64" fill="#fff" mask="url(#satori_om-id)"/></mask><mask id="satori_om-id-2-0"><rect x="33" y="45" width="794" height="25" fill="#fff" mask="url(#satori_om-id)"/></mask><mask id="satori_om-id-2-0-0"><rect x="33" y="52" width="80" height="12" fill="#fff" mask="url(#satori_om-id)"/></mask><g mask="url(#satori_om-id)" clip-path="url(#satori_cp-id)"><path fill="#a78bfa" d="M38.3 62L33.7 62L33.7 54.7L35.1 54.7L35.1 60.8L38.3 60.8L38.3 62ZM41.5 62L39.9 62L42.4 54.7L44.3 54.7L46.9 62L45.2 62L44.7 60.3L42.1 60.3L41.5 62ZM42.5 59.1L44.3 59.1L44.1 58.5Q43.8 57.8 43.6 57L43.6 57Q43.5 56.5 43.3 55.9L43.3 55.9Q43.2 56.5 43.1 57.0L43.1 57.0Q42.9 57.8 42.7 58.5L42.7 58.5L42.5 59.1ZM50.3 62L48.8 62L48.8 54.7L50.4 54.7L52.7 58.4Q52.9 58.7 53.1 59.0Q53.3 59.4 53.5 59.8L53.5 59.8Q53.6 60.0 53.6 60.2L53.6 60.2Q53.6 60.0 53.6 59.8L53.6 59.8Q53.6 59.3 53.6 58.9Q53.6 58.5 53.6 58.2L53.6 58.2L53.6 54.7L55.1 54.7L55.1 62L53.4 62L51.3 58.7Q51.1 58.3 50.9 57.9Q50.7 57.6 50.5 57.1L50.5 57.1Q50.4 56.9 50.2 56.6L50.2 56.6Q50.2 56.9 50.2 57.1L50.2 57.1Q50.3 57.6 50.3 58.0Q50.3 58.4 50.3 58.7L50.3 58.7L50.3 62ZM60.6 62.1L60.6 62.1Q59.6 62.1 58.8 61.6Q58.1 61.2 57.6 60.4Q57.2 59.5 57.2 58.4L57.2 58.4Q57.2 57.2 57.7 56.4Q58.1 55.5 58.9 55.1Q59.6 54.6 60.6 54.6L60.6 54.6Q61.2 54.6 61.7 54.8Q62.3 55.0 62.7 55.3Q63.1 55.6 63.4 56.1Q63.6 56.5 63.7 57.1L63.7 57.1L62.2 57.1Q62.1 56.8 62.0 56.6Q61.8 56.4 61.6 56.2Q61.4 56.1 61.2 56.0Q60.9 56.0 60.6 56.0L60.6 56.0Q60.1 56.0 59.6 56.2Q59.2 56.5 59.0 57.0Q58.7 57.6 58.7 58.4Q58.7 59.1 59.0 59.7Q59.2 60.2 59.6 60.5Q60.0 60.8 60.6 60.8L60.6 60.8Q61.2 60.8 61.5 60.6Q61.9 60.4 62.1 60.0L62.1 60.0Q62.3 59.7 62.3 59.3L62.3 59.3L60.7 59.3L60.7 58.1L63.8 58.1L63.8 59.0Q63.8 60.0 63.4 60.7Q63.0 61.4 62.2 61.7Q61.5 62.1 60.6 62.1ZM68.9 62.1L68.9 62.1Q68.0 62.1 67.3 61.8Q66.7 61.4 66.3 60.8Q65.9 60.2 65.9 59.4L65.9 59.4L65.9 54.7L67.4 54.7L67.4 59.3Q67.4 59.7 67.6 60.1Q67.8 60.4 68.1 60.6Q68.5 60.8 68.9 60.8L68.9 60.8Q69.4 60.8 69.7 60.6Q70.0 60.4 70.2 60.1Q70.4 59.7 70.4 59.3L70.4 59.3L70.4 54.7L71.9 54.7L71.9 59.4Q71.9 60.2 71.5 60.8Q71.2 61.4 70.5 61.8Q69.8 62.1 68.9 62.1ZM75.5 62L73.8 62L76.3 54.7L78.2 54.7L80.8 62L79.1 62L78.6 60.3L76.0 60.3L75.5 62ZM76.4 59.1L78.2 59.1L78.0 58.5Q77.8 57.8 77.5 57L77.5 57Q77.4 56.5 77.3 55.9L77.3 55.9Q77.1 56.5 77.0 57.0L77.0 57.0Q76.8 57.8 76.6 58.5L76.6 58.5L76.4 59.1ZM85.9 62.1L85.9 62.1Q84.9 62.1 84.1 61.6Q83.4 61.2 82.9 60.4Q82.5 59.5 82.5 58.4L82.5 58.4Q82.5 57.2 82.9 56.4Q83.4 55.5 84.2 55.1Q84.9 54.6 85.9 54.6L85.9 54.6Q86.5 54.6 87.0 54.8Q87.6 55.0 88.0 55.3Q88.4 55.6 88.6 56.1Q88.9 56.5 89.0 57.1L89.0 57.1L87.5 57.1Q87.4 56.8 87.2 56.6Q87.1 56.4 86.9 56.2Q86.7 56.1 86.5 56.0Q86.2 56.0 85.9 56.0L85.9 56.0Q85.3 56.0 84.9 56.2Q84.5 56.5 84.2 57.0Q84.0 57.6 84.0 58.4Q84.0 59.1 84.2 59.7Q84.5 60.2 84.9 60.5Q85.3 60.8 85.9 60.8L85.9 60.8Q86.5 60.8 86.8 60.6Q87.2 60.4 87.4 60.0L87.4 60.0Q87.6 59.7 87.6 59.3L87.6 59.3L86.0 59.3L86.0 58.1L89.1 58.1L89.1 59.0Q89.1 60.0 88.6 60.7Q88.2 61.4 87.5 61.7Q86.8 62.1 85.9 62.1ZM96.1 62L91.2 62L91.2 54.7L96.1 54.7L96.1 56.0L92.7 56.0L92.7 57.7L95.8 57.7L95.8 58.9L92.7 58.9L92.7 60.8L96.1 60.8L96.1 62ZM100.9 62.1L100.9 62.1Q100.1 62.1 99.4 61.8Q98.8 61.6 98.4 61.0Q98.0 60.5 98.0 59.7L98.0 59.7L99.5 59.7Q99.5 60.1 99.7 60.4Q99.9 60.6 100.2 60.7Q100.5 60.8 100.9 60.8L100.9 60.8Q101.3 60.8 101.6 60.7Q101.9 60.6 102.1 60.4Q102.2 60.2 102.2 59.9L102.2 59.9Q102.2 59.7 102.1 59.5Q101.9 59.3 101.7 59.2Q101.4 59.1 101.0 59.0L101.0 59.0L100.2 58.8Q99.3 58.6 98.7 58.1Q98.2 57.6 98.2 56.8L98.2 56.8Q98.2 56.2 98.6 55.7Q98.9 55.2 99.5 54.9Q100.2 54.6 101.0 54.6L101.0 54.6Q101.8 54.6 102.4 54.9Q103.0 55.2 103.3 55.7Q103.6 56.2 103.6 56.8L103.6 56.8L102.2 56.8Q102.2 56.4 101.8 56.1Q101.5 55.9 100.9 55.9L100.9 55.9Q100.6 55.9 100.3 56.0Q100.0 56.1 99.9 56.3Q99.8 56.5 99.8 56.7L99.8 56.7Q99.8 57.0 99.9 57.2Q100.1 57.3 100.3 57.5Q100.6 57.6 100.9 57.6L100.9 57.6L101.6 57.8Q102.0 57.9 102.4 58.1Q102.8 58.3 103.1 58.5Q103.4 58.8 103.6 59.1Q103.7 59.5 103.7 59.9L103.7 59.9Q103.7 60.6 103.4 61.1Q103.1 61.6 102.5 61.8Q101.8 62.1 100.9 62.1Z "/></g><mask id="satori_om-id-2-0-1"><rect x="129" y="45" width="480" height="25" fill="#fff" mask="url(#satori_om-id)"/></mask><defs><clipPath id="satori_bc-id-2-0-1-0" clip-path="url(#satori_cp-id)"><path x="129" y="45" width="93" height="25" d="M135,45 h81 a6,6 0 0 1 6,6 v13 a6,6 0 0 1 -6,6 h-81 a6,6 0 0 1 -6,-6 v-13 a6,6 0 0 1 6,-6"/></clipPath></defs><mask id="satori_om-id-2-0-1-0"><rect x="130" y="46" width="91" height="23" fill="#fff" mask="url(#satori_om-id)"/><path width="93" height="25" fill="none" stroke="#000" stroke-width="2" d="M130.757,46.757 A6,6 0 0 1 135,45 h81 a6,6 0 0 1 6,6 v13 a6,6 0 0 1 -6,6 h-81 a6,6 0 0 1 -6,-6 v-13 A6,6 0 0 1 130.757,46.757"/></mask><path x="129" y="45" width="93" height="25" fill="#a78bfa15" d="M135,45 h81 a6,6 0 0 1 6,6 v13 a6,6 0 0 1 -6,6 h-81 a6,6 0 0 1 -6,-6 v-13 a6,6 0 0 1 6,-6" clip-path="url(#satori_cp-id)" mask="url(#satori_om-id)"/><path width="93" height="25" clip-path="url(#satori_bc-id-2-0-1-0)" fill="none" stroke="#a78bfa35" stroke-width="2" d="M130.757,46.757 A6,6 0 0 1 135,45 h81 a6,6 0 0 1 6,6 v13 a6,6 0 0 1 -6,6 h-81 a6,6 0 0 1 -6,-6 v-13 A6,6 0 0 1 130.757,46.757"/><g mask="url(#satori_om-id)" clip-path="url(#satori_cp-id)"><path fill="rgba(225,220,255,0.85)" d="M146.1 54.8L143.4 54.8L143.4 53.3L150.6 53.3L150.6 54.8L147.9 54.8L147.9 62L146.1 62L146.1 54.8ZM151.7 64.3L151.7 64.3L152.1 63.0L152.3 63.0Q152.7 63.1 153.0 63.1Q153.2 63.1 153.4 62.9Q153.6 62.7 153.6 62.4L153.6 62.4L153.7 62.0L151.2 55.4L153.1 55.4L154.2 58.8Q154.4 59.5 154.5 60.1L154.5 60.1Q154.5 60.4 154.6 60.6L154.6 60.6Q154.6 60.4 154.7 60.1L154.7 60.1Q154.8 59.5 155.1 58.8L155.1 58.8L156.2 55.4L158.0 55.4L155.3 62.8Q155.1 63.3 154.8 63.7Q154.4 64.1 154.0 64.3Q153.5 64.5 152.9 64.5L152.9 64.5Q152.5 64.5 152.2 64.4Q151.9 64.4 151.7 64.3ZM160.7 64.4L159.0 64.4L159.0 55.4L160.7 55.4L160.7 56.6L160.8 56.6Q160.9 56.3 161.1 56.0Q161.4 55.7 161.7 55.6Q162.1 55.4 162.7 55.4L162.7 55.4Q163.4 55.4 164.0 55.7Q164.6 56.1 165.0 56.9Q165.3 57.6 165.3 58.7L165.3 58.7Q165.3 59.8 165.0 60.6Q164.6 61.3 164.0 61.7Q163.4 62.1 162.7 62.1L162.7 62.1Q162.1 62.1 161.8 61.9Q161.4 61.7 161.1 61.5Q160.9 61.2 160.8 61.0L160.8 61.0L160.7 61.0L160.7 64.4ZM162.1 60.7L162.1 60.7Q162.6 60.7 162.9 60.4Q163.2 60.2 163.4 59.8Q163.5 59.3 163.5 58.7L163.5 58.7Q163.5 58.2 163.4 57.7Q163.2 57.3 162.9 57.0Q162.6 56.8 162.1 56.8L162.1 56.8Q161.7 56.8 161.3 57.0Q161.0 57.3 160.9 57.7Q160.7 58.1 160.7 58.7L160.7 58.7Q160.7 59.3 160.9 59.8Q161.0 60.2 161.4 60.5Q161.7 60.7 162.1 60.7ZM169.5 62.1L169.5 62.1Q168.5 62.1 167.8 61.7Q167.1 61.3 166.7 60.6Q166.3 59.8 166.3 58.8L166.3 58.8Q166.3 57.7 166.7 57.0Q167.0 56.2 167.8 55.8Q168.5 55.4 169.4 55.4L169.4 55.4Q170.1 55.4 170.6 55.6Q171.2 55.8 171.6 56.2Q172.0 56.6 172.3 57.2Q172.5 57.8 172.5 58.7L172.5 58.7L172.5 59.2L168.0 59.2Q168.0 59.7 168.2 60.0L168.2 60.0Q168.4 60.4 168.7 60.6Q169.1 60.8 169.5 60.8L169.5 60.8Q169.8 60.8 170.1 60.7Q170.4 60.6 170.5 60.5Q170.7 60.3 170.8 60.0L170.8 60.0L172.4 60.3Q172.2 60.9 171.8 61.3Q171.5 61.7 170.9 61.9Q170.3 62.1 169.5 62.1ZM168.0 58.1L168.0 58.1L170.8 58.1Q170.8 57.8 170.7 57.5L170.7 57.5Q170.5 57.1 170.2 56.9Q169.9 56.7 169.4 56.7L169.4 56.7Q169.0 56.7 168.7 56.9Q168.3 57.1 168.2 57.5L168.2 57.5Q168.1 57.7 168.0 58.1ZM176.9 62.1L176.9 62.1Q175.9 62.1 175.1 61.8Q174.3 61.5 173.9 60.9Q173.5 60.2 173.4 59.3L173.4 59.3L175.2 59.3Q175.2 59.7 175.4 60.0Q175.7 60.3 176.1 60.5Q176.4 60.6 176.9 60.6L176.9 60.6Q177.4 60.6 177.8 60.5Q178.1 60.3 178.3 60.1Q178.5 59.8 178.5 59.5L178.5 59.5Q178.5 59.2 178.3 59.0Q178.2 58.8 177.8 58.7Q177.5 58.5 177.0 58.4L177.0 58.4L176.0 58.2Q174.9 57.9 174.3 57.3Q173.7 56.7 173.7 55.8L173.7 55.8Q173.7 55.0 174.1 54.4Q174.5 53.8 175.3 53.5Q176.0 53.2 177.0 53.2L177.0 53.2Q177.9 53.2 178.6 53.5Q179.4 53.8 179.8 54.4Q180.2 55.0 180.2 55.8L180.2 55.8L178.5 55.8Q178.4 55.2 178.0 54.9Q177.6 54.7 176.9 54.7L176.9 54.7Q176.5 54.7 176.2 54.8Q175.8 54.9 175.7 55.1Q175.5 55.4 175.5 55.7L175.5 55.7Q175.5 56.0 175.7 56.2Q175.9 56.4 176.2 56.5Q176.5 56.7 176.9 56.8L176.9 56.8L177.7 57.0Q178.3 57.1 178.7 57.3Q179.2 57.5 179.6 57.8Q179.9 58.1 180.1 58.5Q180.3 59.0 180.3 59.5L180.3 59.5Q180.3 60.3 179.9 60.9Q179.5 61.5 178.8 61.8Q178.0 62.1 176.9 62.1ZM184.5 62.1L184.5 62.1Q183.5 62.1 182.8 61.7Q182.1 61.3 181.7 60.5Q181.3 59.8 181.3 58.8L181.3 58.8Q181.3 57.7 181.7 57.0Q182.1 56.2 182.8 55.8Q183.5 55.4 184.5 55.4L184.5 55.4Q185.1 55.4 185.6 55.5Q186.0 55.7 186.4 56.0Q186.8 56.2 187.1 56.6Q187.3 57.0 187.4 57.5L187.4 57.5L185.8 57.9Q185.7 57.6 185.6 57.4Q185.5 57.2 185.3 57.0Q185.2 56.9 185.0 56.8Q184.8 56.8 184.5 56.8L184.5 56.8Q184.0 56.8 183.7 57.0Q183.4 57.3 183.2 57.7Q183.1 58.2 183.1 58.7L183.1 58.7Q183.1 59.3 183.2 59.8Q183.4 60.2 183.7 60.5Q184.0 60.7 184.5 60.7L184.5 60.7Q184.8 60.7 185.0 60.7Q185.2 60.6 185.3 60.4Q185.5 60.3 185.6 60.1Q185.7 59.9 185.8 59.6L185.8 59.6L187.4 59.9Q187.3 60.4 187.1 60.8Q186.8 61.2 186.4 61.5Q186.1 61.8 185.6 62.0Q185.1 62.1 184.5 62.1ZM190.4 62L188.6 62L188.6 55.4L190.3 55.4L190.3 56.6L190.4 56.6Q190.6 56.0 191.0 55.7Q191.4 55.4 192.0 55.4L192.0 55.4Q192.1 55.4 192.3 55.4Q192.4 55.4 192.5 55.4L192.5 55.4L192.5 57.0Q192.4 56.9 192.2 56.9Q192.0 56.9 191.8 56.9L191.8 56.9Q191.4 56.9 191.1 57.1Q190.7 57.2 190.6 57.6Q190.4 57.9 190.4 58.3L190.4 58.3L190.4 62ZM195.3 62L193.5 62L193.5 55.4L195.3 55.4L195.3 62ZM194.4 54.6L194.4 54.6Q194.0 54.6 193.7 54.3Q193.4 54.1 193.4 53.7L193.4 53.7Q193.4 53.3 193.7 53.1Q194.0 52.8 194.4 52.8L194.4 52.8Q194.8 52.8 195.1 53.0Q195.3 53.3 195.3 53.7L195.3 53.7Q195.3 54.1 195.1 54.3Q194.8 54.6 194.4 54.6ZM198.5 64.4L196.8 64.4L196.8 55.4L198.5 55.4L198.5 56.6L198.6 56.6Q198.7 56.3 198.9 56.0Q199.1 55.7 199.5 55.6Q199.9 55.4 200.4 55.4L200.4 55.4Q201.2 55.4 201.8 55.7Q202.4 56.1 202.7 56.9Q203.1 57.6 203.1 58.7L203.1 58.7Q203.1 59.8 202.7 60.6Q202.4 61.3 201.8 61.7Q201.2 62.1 200.4 62.1L200.4 62.1Q199.9 62.1 199.5 61.9Q199.2 61.7 198.9 61.5Q198.7 61.2 198.6 61.0L198.6 61.0L198.5 61.0L198.5 64.4ZM199.9 60.7L199.9 60.7Q200.3 60.7 200.7 60.4Q201.0 60.2 201.1 59.8Q201.3 59.3 201.3 58.7L201.3 58.7Q201.3 58.2 201.1 57.7Q201.0 57.3 200.7 57.0Q200.3 56.8 199.9 56.8L199.9 56.8Q199.4 56.8 199.1 57.0Q198.8 57.3 198.6 57.7Q198.5 58.1 198.5 58.7L198.5 58.7Q198.5 59.3 198.6 59.8Q198.8 60.2 199.1 60.5Q199.4 60.7 199.9 60.7ZM206.3 55.4L207.6 55.4L207.6 56.8L206.3 56.8L206.3 60.1Q206.3 60.4 206.5 60.5Q206.6 60.7 206.9 60.7L206.9 60.7Q207.0 60.7 207.2 60.7Q207.4 60.6 207.5 60.6L207.5 60.6L207.8 61.9Q207.5 62.0 207.2 62.1Q206.9 62.1 206.6 62.1L206.6 62.1Q205.6 62.1 205.1 61.6Q204.6 61.1 204.6 60.2L204.6 60.2L204.6 56.8L203.7 56.8L203.7 55.4L204.6 55.4L204.6 53.9L206.3 53.9L206.3 55.4Z "/></g><defs><clipPath id="satori_bc-id-2-0-1-1" clip-path="url(#satori_cp-id)"><path x="229" y="45" width="70" height="25" d="M235,45 h58 a6,6 0 0 1 6,6 v13 a6,6 0 0 1 -6,6 h-58 a6,6 0 0 1 -6,-6 v-13 a6,6 0 0 1 6,-6"/></clipPath></defs><mask id="satori_om-id-2-0-1-1"><rect x="230" y="46" width="68" height="23" fill="#fff" mask="url(#satori_om-id)"/><path width="70" height="25" fill="none" stroke="#000" stroke-width="2" d="M230.757,46.757 A6,6 0 0 1 235,45 h58 a6,6 0 0 1 6,6 v13 a6,6 0 0 1 -6,6 h-58 a6,6 0 0 1 -6,-6 v-13 A6,6 0 0 1 230.757,46.757"/></mask><path x="229" y="45" width="70" height="25" fill="#a78bfa15" d="M235,45 h58 a6,6 0 0 1 6,6 v13 a6,6 0 0 1 -6,6 h-58 a6,6 0 0 1 -6,-6 v-13 a6,6 0 0 1 6,-6" clip-path="url(#satori_cp-id)" mask="url(#satori_om-id)"/><path width="70" height="25" clip-path="url(#satori_bc-id-2-0-1-1)" fill="none" stroke="#a78bfa35" stroke-width="2" d="M230.757,46.757 A6,6 0 0 1 235,45 h58 a6,6 0 0 1 6,6 v13 a6,6 0 0 1 -6,6 h-58 a6,6 0 0 1 -6,-6 v-13 A6,6 0 0 1 230.757,46.757"/><g mask="url(#satori_om-id)" clip-path="url(#satori_cp-id)"><path fill="rgba(225,220,255,0.85)" d="M245.6 62L243.8 62L243.8 53.3L247.2 53.3Q248.2 53.3 248.9 53.6Q249.6 54.0 250.0 54.7Q250.3 55.4 250.3 56.2L250.3 56.2Q250.3 57.1 249.9 57.7Q249.6 58.4 248.9 58.8Q248.2 59.1 247.2 59.1L247.2 59.1L245.6 59.1L245.6 62ZM245.6 54.7L245.6 57.7L246.9 57.7Q247.4 57.7 247.8 57.5Q248.1 57.3 248.3 57.0Q248.5 56.7 248.5 56.2Q248.5 55.8 248.3 55.4Q248.1 55.1 247.8 54.9Q247.4 54.7 246.9 54.7L246.9 54.7L245.6 54.7ZM251.5 64.3L251.5 64.3L251.9 63.0L252.1 63.0Q252.5 63.1 252.7 63.1Q253.0 63.1 253.2 62.9Q253.3 62.7 253.4 62.4L253.4 62.4L253.4 62.0L251.0 55.4L252.8 55.4L253.9 58.8Q254.1 59.5 254.3 60.1L254.3 60.1Q254.3 60.4 254.3 60.6L254.3 60.6Q254.4 60.4 254.4 60.1L254.4 60.1Q254.6 59.5 254.8 58.8L254.8 58.8L256.0 55.4L257.8 55.4L255.0 62.8Q254.8 63.3 254.5 63.7Q254.2 64.1 253.7 64.3Q253.3 64.5 252.6 64.5L252.6 64.5Q252.3 64.5 252.0 64.4Q251.7 64.4 251.5 64.3ZM260.8 55.4L262.0 55.4L262.0 56.8L260.8 56.8L260.8 60.1Q260.8 60.4 260.9 60.5Q261.1 60.7 261.4 60.7L261.4 60.7Q261.5 60.7 261.7 60.7Q261.8 60.6 261.9 60.6L261.9 60.6L262.2 61.9Q261.9 62.0 261.6 62.1Q261.3 62.1 261.0 62.1L261.0 62.1Q260.1 62.1 259.5 61.6Q259.0 61.1 259.0 60.2L259.0 60.2L259.0 56.8L258.1 56.8L258.1 55.4L259.0 55.4L259.0 53.9L260.8 53.9L260.8 55.4ZM264.9 58.2L264.9 58.2L264.9 62L263.1 62L263.1 53.3L264.9 53.3L264.9 56.7Q265.1 56.2 265.5 55.8L265.5 55.8Q266.0 55.4 266.9 55.4L266.9 55.4Q267.5 55.4 268.1 55.7Q268.6 56.0 268.8 56.5Q269.1 57.1 269.1 57.8L269.1 57.8L269.1 62L267.4 62L267.4 58.1Q267.4 57.5 267.0 57.2Q266.7 56.8 266.2 56.8L266.2 56.8Q265.8 56.8 265.5 57.0Q265.2 57.2 265.1 57.5Q264.9 57.8 264.9 58.2ZM273.5 62.1L273.5 62.1Q272.6 62.1 271.8 61.7Q271.1 61.3 270.7 60.5Q270.3 59.8 270.3 58.8L270.3 58.8Q270.3 57.7 270.7 57.0Q271.1 56.2 271.8 55.8Q272.6 55.4 273.5 55.4L273.5 55.4Q274.5 55.4 275.3 55.8Q276.0 56.2 276.4 57.0Q276.8 57.7 276.8 58.8L276.8 58.8Q276.8 59.8 276.4 60.5Q276.0 61.3 275.3 61.7Q274.5 62.1 273.5 62.1ZM273.5 60.7L273.5 60.7Q274.0 60.7 274.3 60.5Q274.6 60.2 274.8 59.8Q275.0 59.3 275.0 58.7L275.0 58.7Q275.0 58.2 274.8 57.7Q274.6 57.3 274.3 57.0Q274.0 56.8 273.5 56.8L273.5 56.8Q273.1 56.8 272.8 57.0Q272.4 57.3 272.3 57.7Q272.1 58.2 272.1 58.7L272.1 58.7Q272.1 59.3 272.3 59.8Q272.4 60.2 272.8 60.5Q273.1 60.7 273.5 60.7ZM279.7 58.2L279.7 58.2L279.7 62L278.0 62L278.0 55.4L279.6 55.4L279.7 56.8Q279.9 56.2 280.3 55.8L280.3 55.8Q280.9 55.4 281.7 55.4L281.7 55.4Q282.4 55.4 282.9 55.7Q283.4 56.0 283.7 56.5Q283.9 57.1 283.9 57.8L283.9 57.8L283.9 62L282.2 62L282.2 58.1Q282.2 57.5 281.9 57.2Q281.6 56.8 281.0 56.8L281.0 56.8Q280.6 56.8 280.3 57.0Q280.1 57.2 279.9 57.5Q279.7 57.8 279.7 58.2Z "/></g><defs><clipPath id="satori_bc-id-2-0-1-2" clip-path="url(#satori_cp-id)"><path x="306" y="45" width="134" height="25" d="M312,45 h122 a6,6 0 0 1 6,6 v13 a6,6 0 0 1 -6,6 h-122 a6,6 0 0 1 -6,-6 v-13 a6,6 0 0 1 6,-6"/></clipPath></defs><mask id="satori_om-id-2-0-1-2"><rect x="307" y="46" width="132" height="23" fill="#fff" mask="url(#satori_om-id)"/><path width="134" height="25" fill="none" stroke="#000" stroke-width="2" d="M307.757,46.757 A6,6 0 0 1 312,45 h122 a6,6 0 0 1 6,6 v13 a6,6 0 0 1 -6,6 h-122 a6,6 0 0 1 -6,-6 v-13 A6,6 0 0 1 307.757,46.757"/></mask><path x="306" y="45" width="134" height="25" fill="#a78bfa15" d="M312,45 h122 a6,6 0 0 1 6,6 v13 a6,6 0 0 1 -6,6 h-122 a6,6 0 0 1 -6,-6 v-13 a6,6 0 0 1 6,-6" clip-path="url(#satori_cp-id)" mask="url(#satori_om-id)"/><path width="134" height="25" clip-path="url(#satori_bc-id-2-0-1-2)" fill="none" stroke="#a78bfa35" stroke-width="2" d="M307.757,46.757 A6,6 0 0 1 312,45 h122 a6,6 0 0 1 6,6 v13 a6,6 0 0 1 -6,6 h-122 a6,6 0 0 1 -6,-6 v-13 A6,6 0 0 1 307.757,46.757"/><g mask="url(#satori_om-id)" clip-path="url(#satori_cp-id)"><path fill="rgba(225,220,255,0.85)" d="M323.3 62.1L323.3 62.1Q322.0 62.1 321.2 61.4Q320.4 60.7 320.4 59.4L320.4 59.4L320.4 58.9L322.2 58.9L322.2 59.4Q322.2 60.0 322.5 60.4Q322.8 60.7 323.3 60.7L323.3 60.7Q323.8 60.7 324.1 60.4Q324.5 60.0 324.5 59.4L324.5 59.4L324.5 53.3L326.2 53.3L326.2 59.4Q326.2 60.7 325.4 61.4Q324.7 62.1 323.3 62.1ZM330.0 62.1L330.0 62.1Q329.3 62.1 328.8 61.8Q328.3 61.5 328.0 60.9Q327.8 60.4 327.8 59.6L327.8 59.6L327.8 55.4L329.5 55.4L329.5 59.3Q329.5 59.9 329.8 60.3Q330.2 60.6 330.7 60.6L330.7 60.6Q331.1 60.6 331.4 60.5Q331.7 60.3 331.8 60.0Q332.0 59.7 332.0 59.2L332.0 59.2L332.0 55.4L333.7 55.4L333.7 62L332.1 62L332.1 60.6Q331.8 61.3 331.4 61.6L331.4 61.6Q330.8 62.1 330.0 62.1ZM337.0 64.4L335.2 64.4L335.2 55.4L337.0 55.4L337.0 56.6L337.0 56.6Q337.2 56.3 337.4 56.0Q337.6 55.7 338.0 55.6Q338.4 55.4 338.9 55.4L338.9 55.4Q339.6 55.4 340.2 55.7Q340.8 56.1 341.2 56.9Q341.6 57.6 341.6 58.7L341.6 58.7Q341.6 59.8 341.2 60.6Q340.9 61.3 340.3 61.7Q339.7 62.1 338.9 62.1L338.9 62.1Q338.4 62.1 338 61.9Q337.6 61.7 337.4 61.5Q337.2 61.2 337.0 61.0L337.0 61.0L337.0 61.0L337.0 64.4ZM338.4 60.7L338.4 60.7Q338.8 60.7 339.1 60.4Q339.4 60.2 339.6 59.8Q339.8 59.3 339.8 58.7L339.8 58.7Q339.8 58.2 339.6 57.7Q339.4 57.3 339.1 57.0Q338.8 56.8 338.4 56.8L338.4 56.8Q337.9 56.8 337.6 57.0Q337.3 57.3 337.1 57.7Q337.0 58.1 337.0 58.7L337.0 58.7Q337.0 59.3 337.1 59.8Q337.3 60.2 337.6 60.5Q337.9 60.7 338.4 60.7ZM342.8 64.3L342.8 64.3L343.2 63.0L343.4 63.0Q343.7 63.1 344 63.1Q344.3 63.1 344.4 62.9Q344.6 62.7 344.6 62.4L344.6 62.4L344.7 62.0L342.2 55.4L344.1 55.4L345.2 58.8Q345.4 59.5 345.5 60.1L345.5 60.1Q345.6 60.4 345.6 60.6L345.6 60.6Q345.7 60.4 345.7 60.1L345.7 60.1Q345.9 59.5 346.1 58.8L346.1 58.8L347.2 55.4L349.1 55.4L346.3 62.8Q346.1 63.3 345.8 63.7Q345.5 64.1 345.0 64.3Q344.6 64.5 343.9 64.5L343.9 64.5Q343.5 64.5 343.2 64.4Q342.9 64.4 342.8 64.3ZM352.1 55.4L353.3 55.4L353.3 56.8L352.1 56.8L352.1 60.1Q352.1 60.4 352.2 60.5Q352.3 60.7 352.6 60.7L352.6 60.7Q352.7 60.7 352.9 60.7Q353.1 60.6 353.2 60.6L353.2 60.6L353.5 61.9Q353.2 62.0 352.9 62.1Q352.6 62.1 352.3 62.1L352.3 62.1Q351.3 62.1 350.8 61.6Q350.3 61.1 350.3 60.2L350.3 60.2L350.3 56.8L349.4 56.8L349.4 55.4L350.3 55.4L350.3 53.9L352.1 53.9L352.1 55.4ZM357.4 62.1L357.4 62.1Q356.4 62.1 355.6 61.7Q354.9 61.3 354.5 60.6Q354.1 59.8 354.1 58.8L354.1 58.8Q354.1 57.7 354.5 57.0Q354.9 56.2 355.6 55.8Q356.3 55.4 357.3 55.4L357.3 55.4Q357.9 55.4 358.5 55.6Q359.0 55.8 359.5 56.2Q359.9 56.6 360.1 57.2Q360.4 57.8 360.4 58.7L360.4 58.7L360.4 59.2L355.9 59.2Q355.9 59.7 356.1 60.0L356.1 60.0Q356.3 60.4 356.6 60.6Q356.9 60.8 357.4 60.8L357.4 60.8Q357.7 60.8 358.0 60.7Q358.2 60.6 358.4 60.5Q358.6 60.3 358.7 60.0L358.7 60.0L360.3 60.3Q360.1 60.9 359.7 61.3Q359.3 61.7 358.7 61.9Q358.1 62.1 357.4 62.1ZM355.9 58.1L355.9 58.1L358.7 58.1Q358.6 57.8 358.5 57.5L358.5 57.5Q358.4 57.1 358.1 56.9Q357.8 56.7 357.3 56.7L357.3 56.7Q356.8 56.7 356.5 56.9Q356.2 57.1 356.0 57.5L356.0 57.5Q355.9 57.7 355.9 58.1ZM363.3 62L361.6 62L361.6 55.4L363.3 55.4L363.3 56.6L363.3 56.6Q363.5 56.0 363.9 55.7Q364.4 55.4 364.9 55.4L364.9 55.4Q365.1 55.4 365.2 55.4Q365.4 55.4 365.5 55.4L365.5 55.4L365.5 57.0Q365.4 56.9 365.1 56.9Q364.9 56.9 364.7 56.9L364.7 56.9Q364.3 56.9 364.0 57.1Q363.7 57.2 363.5 57.6Q363.3 57.9 363.3 58.3L363.3 58.3L363.3 62Z M371.2 62L369.3 62L369.3 53.3L371.3 53.3L374.1 57.7Q374.3 58.0 374.5 58.4Q374.7 58.8 375.0 59.3L375.0 59.3Q375.1 59.6 375.2 59.8L375.2 59.8Q375.2 59.6 375.2 59.4L375.2 59.4Q375.1 58.8 375.1 58.3Q375.1 57.8 375.1 57.5L375.1 57.5L375.1 53.3L376.9 53.3L376.9 62L374.9 62L372.4 58.0Q372.1 57.5 371.9 57.1Q371.7 56.7 371.4 56.2L371.4 56.2Q371.2 55.9 371.0 55.5L371.0 55.5Q371.1 55.8 371.1 56.2L371.1 56.2Q371.1 56.7 371.1 57.2Q371.2 57.7 371.2 58.0L371.2 58.0L371.2 62ZM381.4 62.1L381.4 62.1Q380.4 62.1 379.7 61.7Q378.9 61.3 378.6 60.5Q378.2 59.8 378.2 58.8L378.2 58.8Q378.2 57.7 378.6 57.0Q378.9 56.2 379.7 55.8Q380.4 55.4 381.4 55.4L381.4 55.4Q382.4 55.4 383.1 55.8Q383.8 56.2 384.2 57.0Q384.6 57.7 384.6 58.8L384.6 58.8Q384.6 59.8 384.2 60.5Q383.8 61.3 383.1 61.7Q382.4 62.1 381.4 62.1ZM381.4 60.7L381.4 60.7Q381.8 60.7 382.2 60.5Q382.5 60.2 382.6 59.8Q382.8 59.3 382.8 58.7L382.8 58.7Q382.8 58.2 382.6 57.7Q382.5 57.3 382.2 57.0Q381.8 56.8 381.4 56.8L381.4 56.8Q380.9 56.8 380.6 57.0Q380.3 57.3 380.1 57.7Q380.0 58.2 380.0 58.7L380.0 58.7Q380.0 59.3 380.1 59.8Q380.3 60.2 380.6 60.5Q380.9 60.7 381.4 60.7ZM387.8 55.4L389.1 55.4L389.1 56.8L387.8 56.8L387.8 60.1Q387.8 60.4 388.0 60.5Q388.1 60.7 388.4 60.7L388.4 60.7Q388.5 60.7 388.7 60.7Q388.9 60.6 389.0 60.6L389.0 60.6L389.2 61.9Q388.9 62.0 388.7 62.1Q388.4 62.1 388.1 62.1L388.1 62.1Q387.1 62.1 386.6 61.6Q386.1 61.1 386.1 60.2L386.1 60.2L386.1 56.8L385.2 56.8L385.2 55.4L386.1 55.4L386.1 53.9L387.8 53.9L387.8 55.4ZM393.2 62.1L393.2 62.1Q392.2 62.1 391.4 61.7Q390.7 61.3 390.3 60.6Q389.9 59.8 389.9 58.8L389.9 58.8Q389.9 57.7 390.3 57.0Q390.7 56.2 391.4 55.8Q392.1 55.4 393.1 55.4L393.1 55.4Q393.7 55.4 394.3 55.6Q394.8 55.8 395.2 56.2Q395.7 56.6 395.9 57.2Q396.1 57.8 396.1 58.7L396.1 58.7L396.1 59.2L391.7 59.2Q391.7 59.7 391.9 60.0L391.9 60.0Q392.0 60.4 392.4 60.6Q392.7 60.8 393.2 60.8L393.2 60.8Q393.5 60.8 393.7 60.7Q394.0 60.6 394.2 60.5Q394.4 60.3 394.4 60.0L394.4 60.0L396.0 60.3Q395.9 60.9 395.5 61.3Q395.1 61.7 394.5 61.9Q393.9 62.1 393.2 62.1ZM391.7 58.1L391.7 58.1L394.4 58.1Q394.4 57.8 394.3 57.5L394.3 57.5Q394.2 57.1 393.8 56.9Q393.5 56.7 393.1 56.7L393.1 56.7Q392.6 56.7 392.3 56.9Q392.0 57.1 391.8 57.5L391.8 57.5Q391.7 57.7 391.7 58.1ZM401.0 62.1L401.0 62.1Q400.5 62.1 400.1 61.9Q399.7 61.7 399.5 61.5Q399.3 61.2 399.2 61.0L399.2 61.0L399.1 61.0L399.1 62L397.3 62L397.3 53.3L399.1 53.3L399.1 56.6L399.2 56.6Q399.3 56.3 399.5 56.0Q399.7 55.7 400.1 55.6Q400.5 55.4 401.0 55.4L401.0 55.4Q401.8 55.4 402.4 55.7Q403.0 56.1 403.3 56.9Q403.7 57.6 403.7 58.7L403.7 58.7Q403.7 59.8 403.3 60.6Q403.0 61.3 402.4 61.7Q401.8 62.1 401.0 62.1ZM400.5 60.7L400.5 60.7Q400.9 60.7 401.2 60.4Q401.6 60.2 401.7 59.8Q401.9 59.3 401.9 58.7L401.9 58.7Q401.9 58.2 401.7 57.7Q401.6 57.3 401.2 57.0Q400.9 56.8 400.5 56.8L400.5 56.8Q400.0 56.8 399.7 57.0Q399.4 57.3 399.2 57.7Q399.1 58.1 399.1 58.7L399.1 58.7Q399.1 59.3 399.2 59.8Q399.4 60.2 399.7 60.5Q400.0 60.7 400.5 60.7ZM407.8 62.1L407.8 62.1Q406.9 62.1 406.1 61.7Q405.4 61.3 405.0 60.5Q404.6 59.8 404.6 58.8L404.6 58.8Q404.6 57.7 405.0 57.0Q405.4 56.2 406.1 55.8Q406.9 55.4 407.8 55.4L407.8 55.4Q408.8 55.4 409.5 55.8Q410.3 56.2 410.7 57.0Q411.0 57.7 411.0 58.8L411.0 58.8Q411.0 59.8 410.7 60.5Q410.3 61.3 409.5 61.7Q408.8 62.1 407.8 62.1ZM407.8 60.7L407.8 60.7Q408.3 60.7 408.6 60.5Q408.9 60.2 409.1 59.8Q409.3 59.3 409.3 58.7L409.3 58.7Q409.3 58.2 409.1 57.7Q408.9 57.3 408.6 57.0Q408.3 56.8 407.8 56.8L407.8 56.8Q407.4 56.8 407.1 57.0Q406.7 57.3 406.6 57.7Q406.4 58.2 406.4 58.7L406.4 58.7Q406.4 59.3 406.6 59.8Q406.7 60.2 407.1 60.5Q407.4 60.7 407.8 60.7ZM415.2 62.1L415.2 62.1Q414.2 62.1 413.5 61.7Q412.8 61.3 412.4 60.5Q412.0 59.8 412.0 58.8L412.0 58.8Q412.0 57.7 412.4 57.0Q412.8 56.2 413.5 55.8Q414.2 55.4 415.2 55.4L415.2 55.4Q416.2 55.4 416.9 55.8Q417.6 56.2 418.0 57.0Q418.4 57.7 418.4 58.8L418.4 58.8Q418.4 59.8 418.0 60.5Q417.6 61.3 416.9 61.7Q416.2 62.1 415.2 62.1ZM415.2 60.7L415.2 60.7Q415.7 60.7 416.0 60.5Q416.3 60.2 416.5 59.8Q416.6 59.3 416.6 58.7L416.6 58.7Q416.6 58.2 416.5 57.7Q416.3 57.3 416.0 57.0Q415.7 56.8 415.2 56.8L415.2 56.8Q414.7 56.8 414.4 57.0Q414.1 57.3 413.9 57.7Q413.8 58.2 413.8 58.7L413.8 58.7Q413.8 59.3 413.9 59.8Q414.1 60.2 414.4 60.5Q414.7 60.7 415.2 60.7ZM421.4 62L419.6 62L419.6 53.3L421.4 53.3L421.4 58.0L421.5 58.0L423.6 55.4L425.7 55.4L423.2 58.3L425.8 62L423.7 62L421.9 59.3L421.4 59.9L421.4 62Z "/></g><defs><clipPath id="satori_bc-id-2-0-1-3" clip-path="url(#satori_cp-id)"><path x="447" y="45" width="63" height="25" d="M453,45 h51 a6,6 0 0 1 6,6 v13 a6,6 0 0 1 -6,6 h-51 a6,6 0 0 1 -6,-6 v-13 a6,6 0 0 1 6,-6"/></clipPath></defs><mask id="satori_om-id-2-0-1-3"><rect x="448" y="46" width="61" height="23" fill="#fff" mask="url(#satori_om-id)"/><path width="63" height="25" fill="none" stroke="#000" stroke-width="2" d="M448.757,46.757 A6,6 0 0 1 453,45 h51 a6,6 0 0 1 6,6 v13 a6,6 0 0 1 -6,6 h-51 a6,6 0 0 1 -6,-6 v-13 A6,6 0 0 1 448.757,46.757"/></mask><path x="447" y="45" width="63" height="25" fill="#a78bfa15" d="M453,45 h51 a6,6 0 0 1 6,6 v13 a6,6 0 0 1 -6,6 h-51 a6,6 0 0 1 -6,-6 v-13 a6,6 0 0 1 6,-6" clip-path="url(#satori_cp-id)" mask="url(#satori_om-id)"/><path width="63" height="25" clip-path="url(#satori_bc-id-2-0-1-3)" fill="none" stroke="#a78bfa35" stroke-width="2" d="M448.757,46.757 A6,6 0 0 1 453,45 h51 a6,6 0 0 1 6,6 v13 a6,6 0 0 1 -6,6 h-51 a6,6 0 0 1 -6,-6 v-13 A6,6 0 0 1 448.757,46.757"/><g mask="url(#satori_om-id)" clip-path="url(#satori_cp-id)"><path fill="rgba(225,220,255,0.85)" d="M463.6 62L461.8 62L461.8 53.3L463.6 53.3L463.6 56.8L467.4 56.8L467.4 53.3L469.2 53.3L469.2 62L467.4 62L467.4 58.3L463.6 58.3L463.6 62ZM473.1 54.8L470.4 54.8L470.4 53.3L477.5 53.3L477.5 54.8L474.9 54.8L474.9 62L473.1 62L473.1 54.8ZM480.5 62L478.8 62L478.8 53.3L481.5 53.3L482.9 57.3Q483.0 57.6 483.1 58.0Q483.2 58.4 483.4 59.0L483.4 59.0Q483.5 59.5 483.6 59.9L483.6 59.9Q483.7 59.5 483.8 59.0L483.8 59.0Q483.9 58.5 484.0 58.0Q484.1 57.6 484.2 57.3L484.2 57.3L485.6 53.3L488.4 53.3L488.4 62L486.6 62L486.6 57.9Q486.6 57.6 486.6 57.2Q486.6 56.7 486.6 56.2Q486.6 55.8 486.6 55.3L486.6 55.3Q486.6 55.0 486.6 54.8L486.6 54.8Q486.6 55.1 486.5 55.3L486.5 55.3Q486.4 55.8 486.2 56.3Q486.1 56.8 486.0 57.2Q485.9 57.6 485.8 57.9L485.8 57.9L484.3 62L482.8 62L481.3 57.9Q481.3 57.6 481.1 57.2Q481.0 56.8 480.9 56.3Q480.7 55.8 480.6 55.3L480.6 55.3Q480.5 55.1 480.5 54.9L480.5 54.9Q480.5 55.0 480.5 55.2L480.5 55.2Q480.5 55.7 480.5 56.2Q480.5 56.7 480.5 57.2Q480.5 57.6 480.5 57.9L480.5 57.9L480.5 62ZM495.5 62L489.9 62L489.9 53.3L491.7 53.3L491.7 60.5L495.5 60.5L495.5 62Z "/></g><defs><clipPath id="satori_bc-id-2-0-1-4" clip-path="url(#satori_cp-id)"><path x="517" y="45" width="92" height="25" d="M523,45 h80 a6,6 0 0 1 6,6 v13 a6,6 0 0 1 -6,6 h-80 a6,6 0 0 1 -6,-6 v-13 a6,6 0 0 1 6,-6"/></clipPath></defs><mask id="satori_om-id-2-0-1-4"><rect x="518" y="46" width="90" height="23" fill="#fff" mask="url(#satori_om-id)"/><path width="92" height="25" fill="none" stroke="#000" stroke-width="2" d="M518.757,46.757 A6,6 0 0 1 523,45 h80 a6,6 0 0 1 6,6 v13 a6,6 0 0 1 -6,6 h-80 a6,6 0 0 1 -6,-6 v-13 A6,6 0 0 1 518.757,46.757"/></mask><path x="517" y="45" width="92" height="25" fill="#a78bfa15" d="M523,45 h80 a6,6 0 0 1 6,6 v13 a6,6 0 0 1 -6,6 h-80 a6,6 0 0 1 -6,-6 v-13 a6,6 0 0 1 6,-6" clip-path="url(#satori_cp-id)" mask="url(#satori_om-id)"/><path width="92" height="25" clip-path="url(#satori_bc-id-2-0-1-4)" fill="none" stroke="#a78bfa35" stroke-width="2" d="M518.757,46.757 A6,6 0 0 1 523,45 h80 a6,6 0 0 1 6,6 v13 a6,6 0 0 1 -6,6 h-80 a6,6 0 0 1 -6,-6 v-13 A6,6 0 0 1 518.757,46.757"/><g mask="url(#satori_om-id)" clip-path="url(#satori_cp-id)"><path fill="rgba(225,220,255,0.85)" d="M534.3 62.1L534.3 62.1Q533.0 62.1 532.2 61.4Q531.4 60.7 531.4 59.4L531.4 59.4L531.4 58.9L533.2 58.9L533.2 59.4Q533.2 60.0 533.5 60.4Q533.8 60.7 534.3 60.7L534.3 60.7Q534.8 60.7 535.1 60.4Q535.5 60.0 535.5 59.4L535.5 59.4L535.5 53.3L537.2 53.3L537.2 59.4Q537.2 60.7 536.4 61.4Q535.7 62.1 534.3 62.1ZM540.6 62.1L540.6 62.1Q540.0 62.1 539.5 61.9Q539.0 61.7 538.7 61.3Q538.4 60.8 538.4 60.2L538.4 60.2Q538.4 59.6 538.6 59.3Q538.8 58.9 539.2 58.7Q539.5 58.4 540.0 58.3Q540.4 58.2 540.9 58.2L540.9 58.2Q541.5 58.1 541.8 58.0Q542.2 58.0 542.3 57.9Q542.5 57.8 542.5 57.6L542.5 57.6L542.5 57.5Q542.5 57.3 542.4 57.1Q542.2 56.9 542.0 56.8Q541.8 56.7 541.4 56.7L541.4 56.7Q541.1 56.7 540.9 56.8Q540.6 56.9 540.4 57.0Q540.3 57.2 540.2 57.4L540.2 57.4L538.6 57.2Q538.8 56.6 539.2 56.2Q539.6 55.8 540.1 55.6Q540.7 55.4 541.5 55.4L541.5 55.4Q542.0 55.4 542.5 55.5Q543.0 55.6 543.4 55.9Q543.8 56.1 544.0 56.6Q544.2 57.0 544.2 57.6L544.2 57.6L544.2 62L542.6 62L542.6 61.1L542.5 61.1Q542.3 61.4 542.1 61.6Q541.8 61.9 541.5 62.0Q541.1 62.1 540.6 62.1ZM541.1 60.9L541.1 60.9Q541.5 60.9 541.8 60.7Q542.1 60.6 542.3 60.3Q542.5 60.0 542.5 59.7L542.5 59.7L542.5 58.9Q542.4 59.0 542.3 59.1Q542.1 59.1 541.9 59.1Q541.7 59.2 541.5 59.2Q541.3 59.2 541.2 59.2L541.2 59.2Q540.9 59.3 540.6 59.4Q540.4 59.5 540.2 59.7Q540.1 59.8 540.1 60.1L540.1 60.1Q540.1 60.4 540.2 60.5Q540.4 60.7 540.6 60.8Q540.8 60.9 541.1 60.9ZM549.6 62L547.6 62L545.2 55.4L547.0 55.4L548.1 58.8Q548.3 59.5 548.5 60.1L548.5 60.1Q548.5 60.4 548.6 60.6L548.6 60.6Q548.7 60.4 548.7 60.1L548.7 60.1Q548.9 59.5 549.1 58.8L549.1 58.8L550.1 55.4L552.0 55.4L549.6 62ZM554.8 62.1L554.8 62.1Q554.1 62.1 553.6 61.9Q553.1 61.7 552.9 61.3Q552.6 60.8 552.6 60.2L552.6 60.2Q552.6 59.6 552.8 59.3Q553.0 58.9 553.3 58.7Q553.7 58.4 554.1 58.3Q554.6 58.2 555.0 58.2L555.0 58.2Q555.6 58.1 556.0 58.0Q556.3 58.0 556.5 57.9Q556.6 57.8 556.6 57.6L556.6 57.6L556.6 57.5Q556.6 57.3 556.5 57.1Q556.4 56.9 556.2 56.8Q555.9 56.7 555.6 56.7L555.6 56.7Q555.3 56.7 555.0 56.8Q554.8 56.9 554.6 57.0Q554.4 57.2 554.4 57.4L554.4 57.4L552.8 57.2Q552.9 56.6 553.3 56.2Q553.7 55.8 554.3 55.6Q554.9 55.4 555.6 55.4L555.6 55.4Q556.1 55.4 556.6 55.5Q557.1 55.6 557.5 55.9Q557.9 56.1 558.2 56.6Q558.4 57.0 558.4 57.6L558.4 57.6L558.4 62L556.7 62L556.7 61.1L556.7 61.1Q556.5 61.4 556.2 61.6Q556.0 61.9 555.6 62.0Q555.2 62.1 554.8 62.1ZM555.3 60.9L555.3 60.9Q555.7 60.9 556.0 60.7Q556.3 60.6 556.5 60.3Q556.6 60.0 556.6 59.7L556.6 59.7L556.6 58.9Q556.6 59.0 556.4 59.1Q556.3 59.1 556.1 59.1Q555.9 59.2 555.7 59.2Q555.5 59.2 555.3 59.2L555.3 59.2Q555.0 59.3 554.8 59.4Q554.5 59.5 554.4 59.7Q554.3 59.8 554.3 60.1L554.3 60.1Q554.3 60.4 554.4 60.5Q554.5 60.7 554.7 60.8Q555.0 60.9 555.3 60.9ZM563.1 62.1L563.1 62.1Q562.1 62.1 561.3 61.8Q560.5 61.5 560.1 60.9Q559.7 60.2 559.6 59.3L559.6 59.3L561.4 59.3Q561.4 59.7 561.6 60.0Q561.9 60.3 562.3 60.5Q562.6 60.6 563.1 60.6L563.1 60.6Q563.6 60.6 564.0 60.5Q564.3 60.3 564.5 60.1Q564.7 59.8 564.7 59.5L564.7 59.5Q564.7 59.2 564.5 59.0Q564.3 58.8 564.0 58.7Q563.7 58.5 563.2 58.4L563.2 58.4L562.2 58.2Q561.1 57.9 560.5 57.3Q559.9 56.7 559.9 55.8L559.9 55.8Q559.9 55.0 560.3 54.4Q560.7 53.8 561.5 53.5Q562.2 53.2 563.2 53.2L563.2 53.2Q564.1 53.2 564.8 53.5Q565.6 53.8 566.0 54.4Q566.4 55.0 566.4 55.8L566.4 55.8L564.7 55.8Q564.6 55.2 564.2 54.9Q563.8 54.7 563.1 54.7L563.1 54.7Q562.7 54.7 562.4 54.8Q562.0 54.9 561.9 55.1Q561.7 55.4 561.7 55.7L561.7 55.7Q561.7 56.0 561.9 56.2Q562.1 56.4 562.4 56.5Q562.7 56.7 563.1 56.8L563.1 56.8L563.9 57.0Q564.4 57.1 564.9 57.3Q565.4 57.5 565.8 57.8Q566.1 58.1 566.3 58.5Q566.5 59.0 566.5 59.5L566.5 59.5Q566.5 60.3 566.1 60.9Q565.7 61.5 564.9 61.8Q564.2 62.1 563.1 62.1ZM570.7 62.1L570.7 62.1Q569.7 62.1 569.0 61.7Q568.3 61.3 567.9 60.5Q567.5 59.8 567.5 58.8L567.5 58.8Q567.5 57.7 567.9 57.0Q568.3 56.2 569.0 55.8Q569.7 55.4 570.7 55.4L570.7 55.4Q571.3 55.4 571.8 55.5Q572.2 55.7 572.6 56.0Q573.0 56.2 573.3 56.6Q573.5 57.0 573.6 57.5L573.6 57.5L572.0 57.9Q571.9 57.6 571.8 57.4Q571.7 57.2 571.5 57.0Q571.4 56.9 571.2 56.8Q570.9 56.8 570.7 56.8L570.7 56.8Q570.2 56.8 569.9 57.0Q569.6 57.3 569.4 57.7Q569.3 58.2 569.3 58.7L569.3 58.7Q569.3 59.3 569.4 59.8Q569.6 60.2 569.9 60.5Q570.2 60.7 570.7 60.7L570.7 60.7Q570.9 60.7 571.2 60.7Q571.4 60.6 571.5 60.4Q571.7 60.3 571.8 60.1Q571.9 59.9 572.0 59.6L572.0 59.6L573.6 59.9Q573.5 60.4 573.3 60.8Q573.0 61.2 572.6 61.5Q572.3 61.8 571.8 62.0Q571.3 62.1 570.7 62.1ZM576.6 62L574.8 62L574.8 55.4L576.5 55.4L576.5 56.6L576.6 56.6Q576.8 56.0 577.2 55.7Q577.6 55.4 578.2 55.4L578.2 55.4Q578.3 55.4 578.5 55.4Q578.6 55.4 578.7 55.4L578.7 55.4L578.7 57.0Q578.6 56.9 578.4 56.9Q578.2 56.9 578.0 56.9L578.0 56.9Q577.6 56.9 577.2 57.1Q576.9 57.2 576.7 57.6Q576.6 57.9 576.6 58.3L576.6 58.3L576.6 62ZM581.5 62L579.7 62L579.7 55.4L581.5 55.4L581.5 62ZM580.6 54.6L580.6 54.6Q580.2 54.6 579.9 54.3Q579.6 54.1 579.6 53.7L579.6 53.7Q579.6 53.3 579.9 53.1Q580.2 52.8 580.6 52.8L580.6 52.8Q581.0 52.8 581.3 53.0Q581.5 53.3 581.5 53.7L581.5 53.7Q581.5 54.1 581.3 54.3Q581.0 54.6 580.6 54.6ZM584.7 64.4L582.9 64.4L582.9 55.4L584.7 55.4L584.7 56.6L584.8 56.6Q584.9 56.3 585.1 56.0Q585.3 55.7 585.7 55.6Q586.1 55.4 586.6 55.4L586.6 55.4Q587.4 55.4 588.0 55.7Q588.6 56.1 588.9 56.9Q589.3 57.6 589.3 58.7L589.3 58.7Q589.3 59.8 588.9 60.6Q588.6 61.3 588.0 61.7Q587.4 62.1 586.6 62.1L586.6 62.1Q586.1 62.1 585.7 61.9Q585.3 61.7 585.1 61.5Q584.9 61.2 584.8 61.0L584.8 61.0L584.7 61.0L584.7 64.4ZM586.1 60.7L586.1 60.7Q586.5 60.7 586.8 60.4Q587.2 60.2 587.3 59.8Q587.5 59.3 587.5 58.7L587.5 58.7Q587.5 58.2 587.3 57.7Q587.2 57.3 586.9 57.0Q586.5 56.8 586.1 56.8L586.1 56.8Q585.6 56.8 585.3 57.0Q585.0 57.3 584.8 57.7Q584.7 58.1 584.7 58.7L584.7 58.7Q584.7 59.3 584.8 59.8Q585 60.2 585.3 60.5Q585.6 60.7 586.1 60.7ZM592.5 55.4L593.8 55.4L593.8 56.8L592.5 56.8L592.5 60.1Q592.5 60.4 592.7 60.5Q592.8 60.7 593.1 60.7L593.1 60.7Q593.2 60.7 593.4 60.7Q593.6 60.6 593.7 60.6L593.7 60.6L593.9 61.9Q593.7 62.0 593.4 62.1Q593.1 62.1 592.8 62.1L592.8 62.1Q591.8 62.1 591.3 61.6Q590.8 61.1 590.8 60.2L590.8 60.2L590.8 56.8L589.9 56.8L589.9 55.4L590.8 55.4L590.8 53.9L592.5 53.9L592.5 55.4Z "/></g><mask id="satori_om-id-2-1"><rect x="33" y="84" width="794" height="25" fill="#fff" mask="url(#satori_om-id)"/></mask><mask id="satori_om-id-2-1-0"><rect x="33" y="91" width="80" height="12" fill="#fff" mask="url(#satori_om-id)"/></mask><g mask="url(#satori_om-id)" clip-path="url(#satori_cp-id)"><path fill="#60a5fa" d="M35.1 101L33.7 101L33.7 93.7L38.4 93.7L38.4 95.0L35.1 95.0L35.1 97.0L38.1 97.0L38.1 98.2L35.1 98.2L35.1 101ZM42.0 101L40.5 101L40.5 93.7L43.4 93.7Q44.2 93.7 44.8 94.0Q45.4 94.3 45.7 94.8Q46.0 95.4 46.0 96.1Q46.0 96.8 45.7 97.3Q45.3 97.9 44.8 98.1L44.8 98.1Q44.7 98.1 44.7 98.2L44.7 98.2L46.2 101L44.6 101L43.2 98.4L42.0 98.4L42.0 101ZM42.0 95.0L42.0 97.2L43.1 97.2Q43.6 97.2 43.8 97.1Q44.1 96.9 44.3 96.7Q44.4 96.5 44.4 96.1L44.4 96.1Q44.4 95.7 44.3 95.5Q44.1 95.2 43.8 95.1Q43.5 95.0 43.1 95.0L43.1 95.0L42.0 95.0ZM49.3 101L47.7 101L50.2 93.7L52.1 93.7L54.7 101L53.0 101L52.4 99.3L49.9 99.3L49.3 101ZM50.2 98.1L52.1 98.1L51.8 97.5Q51.6 96.8 51.4 96L51.4 96Q51.3 95.5 51.1 94.9L51.1 94.9Q51.0 95.5 50.8 96.0L50.8 96.0Q50.6 96.8 50.4 97.5L50.4 97.5L50.2 98.1ZM58.0 101L56.6 101L56.6 93.7L58.8 93.7L60.0 97.1Q60.1 97.3 60.2 97.7Q60.3 98.0 60.4 98.5L60.4 98.5Q60.5 98.9 60.6 99.3L60.6 99.3Q60.7 98.9 60.7 98.5L60.7 98.5Q60.8 98.1 60.9 97.7Q61.0 97.3 61.1 97.1L61.1 97.1L62.3 93.7L64.6 93.7L64.6 101L63.1 101L63.1 97.6Q63.1 97.3 63.1 97.0Q63.1 96.6 63.1 96.2Q63.1 95.8 63.1 95.4L63.1 95.4Q63.1 95.2 63.1 95.0L63.1 95.0Q63.1 95.2 63.0 95.4L63.0 95.4Q62.9 95.9 62.8 96.3Q62.7 96.7 62.6 97.0Q62.5 97.3 62.4 97.6L62.4 97.6L61.2 101L59.9 101L58.7 97.6Q58.6 97.3 58.5 97.0Q58.4 96.7 58.3 96.3Q58.2 95.9 58.1 95.4L58.1 95.4Q58.0 95.2 58.0 95.1L58.0 95.1Q58.0 95.2 58.0 95.4L58.0 95.4Q58.0 95.8 58.0 96.2Q58.0 96.6 58.0 97.0Q58.0 97.3 58.0 97.6L58.0 97.6L58.0 101ZM71.8 101L66.9 101L66.9 93.7L71.7 93.7L71.7 95.0L68.4 95.0L68.4 96.7L71.5 96.7L71.5 97.9L68.4 97.9L68.4 99.8L71.8 99.8L71.8 101ZM77.2 101L75.5 101L73.5 93.7L75.2 93.7L76.0 97.3Q76.1 97.8 76.2 98.3Q76.3 98.8 76.4 99.3L76.4 99.3Q76.4 99.4 76.4 99.5L76.4 99.5Q76.4 99.4 76.4 99.3L76.4 99.3Q76.5 98.8 76.6 98.3Q76.7 97.8 76.8 97.3L76.8 97.3L77.7 93.7L79.3 93.7L80.1 97.3Q80.3 97.8 80.3 98.3Q80.4 98.8 80.5 99.3L80.5 99.3Q80.5 99.4 80.6 99.5L80.6 99.5Q80.6 99.4 80.6 99.3L80.6 99.3Q80.7 98.8 80.8 98.3Q80.9 97.8 81.0 97.3L81.0 97.3L81.8 93.7L83.4 93.7L81.5 101L79.8 101L78.8 97.3Q78.6 96.7 78.5 95.9L78.5 95.9Q78.5 95.7 78.5 95.5L78.5 95.5Q78.4 95.7 78.4 95.9L78.4 95.9Q78.3 96.6 78.2 97.3L78.2 97.3L77.2 101ZM88.5 101.1L88.5 101.1Q87.6 101.1 86.8 100.7Q86.0 100.2 85.6 99.4Q85.1 98.5 85.1 97.4L85.1 97.4Q85.1 96.2 85.6 95.3Q86.0 94.5 86.8 94.1Q87.6 93.6 88.5 93.6L88.5 93.6Q89.5 93.6 90.3 94.1Q91.0 94.5 91.5 95.3Q91.9 96.2 91.9 97.4L91.9 97.4Q91.9 98.5 91.5 99.4Q91.0 100.2 90.3 100.7Q89.5 101.1 88.5 101.1ZM88.5 99.8L88.5 99.8Q89.1 99.8 89.5 99.5Q89.9 99.2 90.2 98.7Q90.4 98.1 90.4 97.4L90.4 97.4Q90.4 96.6 90.2 96.0Q89.9 95.5 89.5 95.2Q89.1 95.0 88.5 95.0L88.5 95.0Q88.0 95.0 87.5 95.2Q87.1 95.5 86.9 96.0Q86.6 96.6 86.6 97.4L86.6 97.4Q86.6 98.1 86.9 98.7Q87.1 99.2 87.5 99.5Q88.0 99.8 88.5 99.8ZM95.5 101L94.0 101L94.0 93.7L96.9 93.7Q97.7 93.7 98.3 94.0Q98.9 94.3 99.2 94.8Q99.5 95.4 99.5 96.1Q99.5 96.8 99.2 97.3Q98.9 97.9 98.3 98.1L98.3 98.1Q98.2 98.1 98.2 98.2L98.2 98.2L99.7 101L98.1 101L96.7 98.4L95.5 98.4L95.5 101ZM95.5 95.0L95.5 97.2L96.6 97.2Q97.1 97.2 97.3 97.1Q97.6 96.9 97.8 96.7Q97.9 96.5 97.9 96.1L97.9 96.1Q97.9 95.7 97.8 95.5Q97.6 95.2 97.3 95.1Q97.1 95.0 96.6 95.0L96.6 95.0L95.5 95.0ZM103.1 101L101.6 101L101.6 93.7L103.1 93.7L103.1 95.7L103.1 97.4Q103.1 97.3 103.1 97.3L103.1 97.3Q103.4 96.9 103.6 96.6Q103.9 96.2 104.2 95.8L104.2 95.8L106.0 93.7L107.8 93.7L105.1 96.9L107.9 101L106.1 101L104.1 97.9L103.1 98.9L103.1 101ZM112.5 101.1L112.5 101.1Q111.6 101.1 110.9 100.8Q110.3 100.6 109.9 100.0Q109.6 99.5 109.5 98.7L109.5 98.7L111.0 98.7Q111.0 99.1 111.2 99.4Q111.4 99.6 111.7 99.7Q112.0 99.8 112.4 99.8L112.4 99.8Q112.8 99.8 113.1 99.7Q113.4 99.6 113.6 99.4Q113.8 99.2 113.8 98.9L113.8 98.9Q113.8 98.7 113.6 98.5Q113.5 98.3 113.2 98.2Q112.9 98.1 112.5 98.0L112.5 98.0L111.7 97.8Q110.8 97.6 110.3 97.1Q109.7 96.6 109.7 95.8L109.7 95.8Q109.7 95.2 110.1 94.7Q110.5 94.2 111.1 93.9Q111.7 93.6 112.5 93.6L112.5 93.6Q113.3 93.6 113.9 93.9Q114.5 94.2 114.8 94.7Q115.2 95.2 115.2 95.8L115.2 95.8L113.7 95.8Q113.7 95.4 113.4 95.1Q113.0 94.9 112.5 94.9L112.5 94.9Q112.1 94.9 111.8 95.0Q111.6 95.1 111.4 95.3Q111.3 95.5 111.3 95.7L111.3 95.7Q111.3 96.0 111.4 96.2Q111.6 96.3 111.9 96.5Q112.1 96.6 112.4 96.6L112.4 96.6L113.1 96.8Q113.6 96.9 113.9 97.1Q114.3 97.3 114.6 97.5Q114.9 97.8 115.1 98.1Q115.3 98.5 115.3 98.9L115.3 98.9Q115.3 99.6 114.9 100.1Q114.6 100.6 114.0 100.8Q113.3 101.1 112.5 101.1Z "/></g><mask id="satori_om-id-2-1-1"><rect x="129" y="84" width="249" height="25" fill="#fff" mask="url(#satori_om-id)"/></mask><defs><clipPath id="satori_bc-id-2-1-1-0" clip-path="url(#satori_cp-id)"><path x="129" y="84" width="103" height="25" d="M135,84 h91 a6,6 0 0 1 6,6 v13 a6,6 0 0 1 -6,6 h-91 a6,6 0 0 1 -6,-6 v-13 a6,6 0 0 1 6,-6"/></clipPath></defs><mask id="satori_om-id-2-1-1-0"><rect x="130" y="85" width="101" height="23" fill="#fff" mask="url(#satori_om-id)"/><path width="103" height="25" fill="none" stroke="#000" stroke-width="2" d="M130.757,85.757 A6,6 0 0 1 135,84 h91 a6,6 0 0 1 6,6 v13 a6,6 0 0 1 -6,6 h-91 a6,6 0 0 1 -6,-6 v-13 A6,6 0 0 1 130.757,85.757"/></mask><path x="129" y="84" width="103" height="25" fill="#60a5fa15" d="M135,84 h91 a6,6 0 0 1 6,6 v13 a6,6 0 0 1 -6,6 h-91 a6,6 0 0 1 -6,-6 v-13 a6,6 0 0 1 6,-6" clip-path="url(#satori_cp-id)" mask="url(#satori_om-id)"/><path width="103" height="25" clip-path="url(#satori_bc-id-2-1-1-0)" fill="none" stroke="#60a5fa35" stroke-width="2" d="M130.757,85.757 A6,6 0 0 1 135,84 h91 a6,6 0 0 1 6,6 v13 a6,6 0 0 1 -6,6 h-91 a6,6 0 0 1 -6,-6 v-13 A6,6 0 0 1 130.757,85.757"/><g mask="url(#satori_om-id)" clip-path="url(#satori_cp-id)"><path fill="rgba(225,220,255,0.85)" d="M145.6 101L143.8 101L143.8 92.3L147.2 92.3Q148.2 92.3 148.9 92.6Q149.6 93.0 150.0 93.6Q150.3 94.3 150.3 95.1Q150.3 96.0 149.9 96.6Q149.6 97.2 148.9 97.5L148.9 97.5Q148.8 97.6 148.8 97.6L148.8 97.6L150.6 101L148.6 101L147.0 97.9L145.6 97.9L145.6 101ZM145.6 93.7L145.6 96.4L146.9 96.4Q147.4 96.4 147.8 96.3Q148.1 96.1 148.3 95.8Q148.5 95.5 148.5 95.1L148.5 95.1Q148.5 94.7 148.3 94.4Q148.1 94.1 147.8 93.9Q147.4 93.7 146.9 93.7L146.9 93.7L145.6 93.7ZM154.6 101.1L154.6 101.1Q153.6 101.1 152.9 100.7Q152.1 100.3 151.7 99.6Q151.4 98.8 151.4 97.8L151.4 97.8Q151.4 96.7 151.7 96.0Q152.1 95.2 152.8 94.8Q153.5 94.4 154.5 94.4L154.5 94.4Q155.1 94.4 155.7 94.6Q156.3 94.8 156.7 95.2Q157.1 95.6 157.3 96.2Q157.6 96.8 157.6 97.7L157.6 97.7L157.6 98.2L153.1 98.2Q153.1 98.7 153.3 99.0L153.3 99.0Q153.5 99.4 153.8 99.6Q154.2 99.8 154.6 99.8L154.6 99.8Q154.9 99.8 155.2 99.7Q155.4 99.6 155.6 99.5Q155.8 99.3 155.9 99.0L155.9 99.0L157.5 99.3Q157.3 99.9 156.9 100.3Q156.5 100.7 155.9 100.9Q155.4 101.1 154.6 101.1ZM153.1 97.1L153.1 97.1L155.9 97.1Q155.8 96.8 155.7 96.5L155.7 96.5Q155.6 96.1 155.3 95.9Q155.0 95.7 154.5 95.7L154.5 95.7Q154.1 95.7 153.7 95.9Q153.4 96.1 153.3 96.5L153.3 96.5Q153.1 96.7 153.1 97.1ZM160.6 101.1L160.6 101.1Q160.0 101.1 159.5 100.9Q159.0 100.7 158.7 100.3Q158.4 99.8 158.4 99.2L158.4 99.2Q158.4 98.6 158.6 98.3Q158.8 97.9 159.2 97.7Q159.5 97.4 160.0 97.3Q160.4 97.2 160.9 97.2L160.9 97.2Q161.5 97.1 161.8 97.0Q162.2 97.0 162.3 96.9Q162.5 96.8 162.5 96.6L162.5 96.6L162.5 96.5Q162.5 96.3 162.4 96.1Q162.3 95.9 162.0 95.8Q161.8 95.7 161.5 95.7L161.5 95.7Q161.1 95.7 160.9 95.8Q160.6 95.9 160.5 96.0Q160.3 96.2 160.2 96.4L160.2 96.4L158.6 96.2Q158.8 95.6 159.2 95.2Q159.6 94.8 160.2 94.6Q160.7 94.4 161.5 94.4L161.5 94.4Q162.0 94.4 162.5 94.5Q163.0 94.6 163.4 94.9Q163.8 95.1 164.0 95.6Q164.2 96.0 164.2 96.6L164.2 96.6L164.2 101L162.6 101L162.6 100.1L162.5 100.1Q162.4 100.4 162.1 100.6Q161.8 100.9 161.5 101.0Q161.1 101.1 160.6 101.1ZM161.1 99.9L161.1 99.9Q161.5 99.9 161.8 99.7Q162.1 99.6 162.3 99.3Q162.5 99.0 162.5 98.7L162.5 98.7L162.5 97.9Q162.4 98.0 162.3 98.1Q162.1 98.1 161.9 98.1Q161.7 98.2 161.5 98.2Q161.3 98.2 161.2 98.2L161.2 98.2Q160.9 98.3 160.6 98.4Q160.4 98.5 160.3 98.7Q160.1 98.8 160.1 99.1L160.1 99.1Q160.1 99.4 160.2 99.5Q160.4 99.7 160.6 99.8Q160.8 99.9 161.1 99.9ZM168.7 101.1L168.7 101.1Q167.7 101.1 167.0 100.7Q166.3 100.3 165.9 99.5Q165.5 98.8 165.5 97.8L165.5 97.8Q165.5 96.7 165.9 96.0Q166.3 95.2 167.0 94.8Q167.7 94.4 168.7 94.4L168.7 94.4Q169.3 94.4 169.7 94.5Q170.2 94.7 170.6 95.0Q171.0 95.2 171.2 95.6Q171.5 96.0 171.6 96.5L171.6 96.5L170.0 96.9Q169.9 96.6 169.8 96.4Q169.7 96.2 169.5 96.0Q169.4 95.9 169.2 95.8Q168.9 95.8 168.7 95.8L168.7 95.8Q168.2 95.8 167.9 96.0Q167.6 96.3 167.4 96.7Q167.3 97.2 167.3 97.7L167.3 97.7Q167.3 98.3 167.4 98.8Q167.6 99.2 167.9 99.5Q168.2 99.7 168.7 99.7L168.7 99.7Q168.9 99.7 169.2 99.7Q169.4 99.6 169.5 99.4Q169.7 99.3 169.8 99.1Q169.9 98.9 170.0 98.6L170.0 98.6L171.6 98.9Q171.5 99.4 171.3 99.8Q171.0 100.2 170.6 100.5Q170.3 100.8 169.8 101.0Q169.3 101.1 168.7 101.1ZM174.8 94.4L176.1 94.4L176.1 95.8L174.8 95.8L174.8 99.1Q174.8 99.4 175.0 99.5Q175.1 99.7 175.4 99.7L175.4 99.7Q175.5 99.7 175.7 99.7Q175.9 99.6 176.0 99.6L176.0 99.6L176.2 100.9Q175.9 101.0 175.7 101.1Q175.4 101.1 175.1 101.1L175.1 101.1Q174.1 101.1 173.6 100.6Q173.1 100.1 173.1 99.2L173.1 99.2L173.1 95.8L172.2 95.8L172.2 94.4L173.1 94.4L173.1 92.9L174.8 92.9L174.8 94.4Z M181.9 101L180.1 101L180.1 92.3L182.1 92.3L184.8 96.7Q185.0 97.0 185.3 97.4Q185.5 97.8 185.7 98.3L185.7 98.3Q185.8 98.6 185.9 98.8L185.9 98.8Q185.9 98.6 185.9 98.4L185.9 98.4Q185.9 97.8 185.8 97.3Q185.8 96.8 185.8 96.5L185.8 96.5L185.8 92.3L187.6 92.3L187.6 101L185.7 101L183.1 97.0Q182.9 96.5 182.6 96.1Q182.4 95.7 182.1 95.2L182.1 95.2Q182.0 94.9 181.8 94.5L181.8 94.5Q181.8 94.8 181.8 95.2L181.8 95.2Q181.9 95.7 181.9 96.2Q181.9 96.7 181.9 97.0L181.9 97.0L181.9 101ZM191.0 101.1L191.0 101.1Q190.4 101.1 189.9 100.9Q189.4 100.7 189.1 100.3Q188.8 99.8 188.8 99.2L188.8 99.2Q188.8 98.6 189.0 98.3Q189.2 97.9 189.6 97.7Q189.9 97.4 190.4 97.3Q190.8 97.2 191.3 97.2L191.3 97.2Q191.9 97.1 192.2 97.0Q192.6 97.0 192.7 96.9Q192.9 96.8 192.9 96.6L192.9 96.6L192.9 96.5Q192.9 96.3 192.8 96.1Q192.7 95.9 192.4 95.8Q192.2 95.7 191.9 95.7L191.9 95.7Q191.5 95.7 191.3 95.8Q191.0 95.9 190.9 96.0Q190.7 96.2 190.6 96.4L190.6 96.4L189.0 96.2Q189.2 95.6 189.6 95.2Q190.0 94.8 190.6 94.6Q191.1 94.4 191.9 94.4L191.9 94.4Q192.4 94.4 192.9 94.5Q193.4 94.6 193.8 94.9Q194.2 95.1 194.4 95.6Q194.7 96.0 194.7 96.6L194.7 96.6L194.7 101L193.0 101L193.0 100.1L192.9 100.1Q192.8 100.4 192.5 100.6Q192.2 100.9 191.9 101.0Q191.5 101.1 191.0 101.1ZM191.5 99.9L191.5 99.9Q191.9 99.9 192.2 99.7Q192.6 99.6 192.7 99.3Q192.9 99.0 192.9 98.7L192.9 98.7L192.9 97.9Q192.8 98.0 192.7 98.1Q192.5 98.1 192.3 98.1Q192.1 98.2 191.9 98.2Q191.8 98.2 191.6 98.2L191.6 98.2Q191.3 98.3 191.0 98.4Q190.8 98.5 190.7 98.7Q190.5 98.8 190.5 99.1L190.5 99.1Q190.5 99.4 190.7 99.5Q190.8 99.7 191.0 99.8Q191.2 99.9 191.5 99.9ZM198.2 94.4L199.4 94.4L199.4 95.8L198.2 95.8L198.2 99.1Q198.2 99.4 198.3 99.5Q198.5 99.7 198.8 99.7L198.8 99.7Q198.9 99.7 199.1 99.7Q199.2 99.6 199.3 99.6L199.3 99.6L199.6 100.9Q199.3 101.0 199.0 101.1Q198.7 101.1 198.5 101.1L198.5 101.1Q197.5 101.1 196.9 100.6Q196.4 100.1 196.4 99.2L196.4 99.2L196.4 95.8L195.5 95.8L195.5 94.4L196.4 94.4L196.4 92.9L198.2 92.9L198.2 94.4ZM202.3 101L200.6 101L200.6 94.4L202.3 94.4L202.3 101ZM201.4 93.6L201.4 93.6Q201.0 93.6 200.8 93.3Q200.5 93.1 200.5 92.7L200.5 92.7Q200.5 92.3 200.8 92.1Q201.0 91.8 201.4 91.8L201.4 91.8Q201.8 91.8 202.1 92.0Q202.4 92.3 202.4 92.7L202.4 92.7Q202.4 93.1 202.1 93.3Q201.8 93.6 201.4 93.6ZM207.6 101L205.6 101L203.2 94.4L205.1 94.4L206.2 97.8Q206.4 98.5 206.6 99.1L206.6 99.1Q206.6 99.4 206.7 99.6L206.7 99.6Q206.7 99.4 206.8 99.1L206.8 99.1Q206.9 98.5 207.1 97.8L207.1 97.8L208.2 94.4L210.1 94.4L207.6 101ZM214.0 101.1L214.0 101.1Q213.0 101.1 212.2 100.7Q211.5 100.3 211.1 99.6Q210.7 98.8 210.7 97.8L210.7 97.8Q210.7 96.7 211.1 96.0Q211.5 95.2 212.2 94.8Q212.9 94.4 213.9 94.4L213.9 94.4Q214.5 94.4 215.1 94.6Q215.6 94.8 216.0 95.2Q216.5 95.6 216.7 96.2Q216.9 96.8 216.9 97.7L216.9 97.7L216.9 98.2L212.5 98.2Q212.5 98.7 212.7 99.0L212.7 99.0Q212.8 99.4 213.2 99.6Q213.5 99.8 214.0 99.8L214.0 99.8Q214.3 99.8 214.5 99.7Q214.8 99.6 215.0 99.5Q215.2 99.3 215.3 99.0L215.3 99.0L216.8 99.3Q216.7 99.9 216.3 100.3Q215.9 100.7 215.3 100.9Q214.7 101.1 214.0 101.1ZM212.5 97.1L212.5 97.1L215.3 97.1Q215.2 96.8 215.1 96.5L215.1 96.5Q215.0 96.1 214.6 95.9Q214.3 95.7 213.9 95.7L213.9 95.7Q213.4 95.7 213.1 95.9Q212.8 96.1 212.6 96.5L212.6 96.5Q212.5 96.7 212.5 97.1Z "/></g><defs><clipPath id="satori_bc-id-2-1-1-1" clip-path="url(#satori_cp-id)"><path x="239" y="84" width="62" height="25" d="M245,84 h50 a6,6 0 0 1 6,6 v13 a6,6 0 0 1 -6,6 h-50 a6,6 0 0 1 -6,-6 v-13 a6,6 0 0 1 6,-6"/></clipPath></defs><mask id="satori_om-id-2-1-1-1"><rect x="240" y="85" width="60" height="23" fill="#fff" mask="url(#satori_om-id)"/><path width="62" height="25" fill="none" stroke="#000" stroke-width="2" d="M240.757,85.757 A6,6 0 0 1 245,84 h50 a6,6 0 0 1 6,6 v13 a6,6 0 0 1 -6,6 h-50 a6,6 0 0 1 -6,-6 v-13 A6,6 0 0 1 240.757,85.757"/></mask><path x="239" y="84" width="62" height="25" fill="#60a5fa15" d="M245,84 h50 a6,6 0 0 1 6,6 v13 a6,6 0 0 1 -6,6 h-50 a6,6 0 0 1 -6,-6 v-13 a6,6 0 0 1 6,-6" clip-path="url(#satori_cp-id)" mask="url(#satori_om-id)"/><path width="62" height="25" clip-path="url(#satori_bc-id-2-1-1-1)" fill="none" stroke="#60a5fa35" stroke-width="2" d="M240.757,85.757 A6,6 0 0 1 245,84 h50 a6,6 0 0 1 6,6 v13 a6,6 0 0 1 -6,6 h-50 a6,6 0 0 1 -6,-6 v-13 A6,6 0 0 1 240.757,85.757"/><g mask="url(#satori_om-id)" clip-path="url(#satori_cp-id)"><path fill="rgba(225,220,255,0.85)" d="M255.6 101L253.8 101L253.8 92.3L257.2 92.3Q258.2 92.3 258.9 92.6Q259.6 93.0 260.0 93.6Q260.3 94.3 260.3 95.1Q260.3 96.0 259.9 96.6Q259.6 97.2 258.9 97.5L258.9 97.5Q258.8 97.6 258.8 97.6L258.8 97.6L260.6 101L258.6 101L257.0 97.9L255.6 97.9L255.6 101ZM255.6 93.7L255.6 96.4L256.9 96.4Q257.4 96.4 257.8 96.3Q258.1 96.1 258.3 95.8Q258.5 95.5 258.5 95.1L258.5 95.1Q258.5 94.7 258.3 94.4Q258.1 94.1 257.8 93.9Q257.4 93.7 256.9 93.7L256.9 93.7L255.6 93.7ZM264.6 101.1L264.6 101.1Q263.6 101.1 262.9 100.7Q262.1 100.3 261.7 99.6Q261.4 98.8 261.4 97.8L261.4 97.8Q261.4 96.7 261.7 96.0Q262.1 95.2 262.8 94.8Q263.5 94.4 264.5 94.4L264.5 94.4Q265.1 94.4 265.7 94.6Q266.3 94.8 266.7 95.2Q267.1 95.6 267.3 96.2Q267.6 96.8 267.6 97.7L267.6 97.7L267.6 98.2L263.1 98.2Q263.1 98.7 263.3 99.0L263.3 99.0Q263.5 99.4 263.8 99.6Q264.2 99.8 264.6 99.8L264.6 99.8Q264.9 99.8 265.2 99.7Q265.4 99.6 265.6 99.5Q265.8 99.3 265.9 99.0L265.9 99.0L267.5 99.3Q267.3 99.9 266.9 100.3Q266.5 100.7 265.9 100.9Q265.4 101.1 264.6 101.1ZM263.1 97.1L263.1 97.1L265.9 97.1Q265.8 96.8 265.7 96.5L265.7 96.5Q265.6 96.1 265.3 95.9Q265.0 95.7 264.5 95.7L264.5 95.7Q264.1 95.7 263.7 95.9Q263.4 96.1 263.3 96.5L263.3 96.5Q263.1 96.7 263.1 97.1ZM270.6 101.1L270.6 101.1Q270.0 101.1 269.5 100.9Q269.0 100.7 268.7 100.3Q268.4 99.8 268.4 99.2L268.4 99.2Q268.4 98.6 268.6 98.3Q268.8 97.9 269.2 97.7Q269.5 97.4 270.0 97.3Q270.4 97.2 270.9 97.2L270.9 97.2Q271.5 97.1 271.8 97.0Q272.2 97.0 272.3 96.9Q272.5 96.8 272.5 96.6L272.5 96.6L272.5 96.5Q272.5 96.3 272.4 96.1Q272.3 95.9 272.0 95.8Q271.8 95.7 271.5 95.7L271.5 95.7Q271.1 95.7 270.9 95.8Q270.6 95.9 270.5 96.0Q270.3 96.2 270.2 96.4L270.2 96.4L268.6 96.2Q268.8 95.6 269.2 95.2Q269.6 94.8 270.2 94.6Q270.7 94.4 271.5 94.4L271.5 94.4Q272.0 94.4 272.5 94.5Q273.0 94.6 273.4 94.9Q273.8 95.1 274.0 95.6Q274.2 96.0 274.2 96.6L274.2 96.6L274.2 101L272.6 101L272.6 100.1L272.5 100.1Q272.4 100.4 272.1 100.6Q271.8 100.9 271.5 101.0Q271.1 101.1 270.6 101.1ZM271.1 99.9L271.1 99.9Q271.5 99.9 271.8 99.7Q272.1 99.6 272.3 99.3Q272.5 99.0 272.5 98.7L272.5 98.7L272.5 97.9Q272.4 98.0 272.3 98.1Q272.1 98.1 271.9 98.1Q271.7 98.2 271.5 98.2Q271.3 98.2 271.2 98.2L271.2 98.2Q270.9 98.3 270.6 98.4Q270.4 98.5 270.3 98.7Q270.1 98.8 270.1 99.1L270.1 99.1Q270.1 99.4 270.2 99.5Q270.4 99.7 270.6 99.8Q270.8 99.9 271.1 99.9ZM278.7 101.1L278.7 101.1Q277.7 101.1 277.0 100.7Q276.3 100.3 275.9 99.5Q275.5 98.8 275.5 97.8L275.5 97.8Q275.5 96.7 275.9 96.0Q276.3 95.2 277.0 94.8Q277.7 94.4 278.7 94.4L278.7 94.4Q279.3 94.4 279.7 94.5Q280.2 94.7 280.6 95.0Q281.0 95.2 281.2 95.6Q281.5 96.0 281.6 96.5L281.6 96.5L280.0 96.9Q279.9 96.6 279.8 96.4Q279.7 96.2 279.5 96.0Q279.4 95.9 279.2 95.8Q278.9 95.8 278.7 95.8L278.7 95.8Q278.2 95.8 277.9 96.0Q277.6 96.3 277.4 96.7Q277.3 97.2 277.3 97.7L277.3 97.7Q277.3 98.3 277.4 98.8Q277.6 99.2 277.9 99.5Q278.2 99.7 278.7 99.7L278.7 99.7Q278.9 99.7 279.2 99.7Q279.4 99.6 279.5 99.4Q279.7 99.3 279.8 99.1Q279.9 98.9 280.0 98.6L280.0 98.6L281.6 98.9Q281.5 99.4 281.3 99.8Q281.0 100.2 280.6 100.5Q280.3 100.8 279.8 101.0Q279.3 101.1 278.7 101.1ZM284.8 94.4L286.1 94.4L286.1 95.8L284.8 95.8L284.8 99.1Q284.8 99.4 285.0 99.5Q285.1 99.7 285.4 99.7L285.4 99.7Q285.5 99.7 285.7 99.7Q285.9 99.6 286.0 99.6L286.0 99.6L286.2 100.9Q285.9 101.0 285.7 101.1Q285.4 101.1 285.1 101.1L285.1 101.1Q284.1 101.1 283.6 100.6Q283.1 100.1 283.1 99.2L283.1 99.2L283.1 95.8L282.2 95.8L282.2 94.4L283.1 94.4L283.1 92.9L284.8 92.9L284.8 94.4Z "/></g><defs><clipPath id="satori_bc-id-2-1-1-2" clip-path="url(#satori_cp-id)"><path x="308" y="84" width="70" height="25" d="M314,84 h58 a6,6 0 0 1 6,6 v13 a6,6 0 0 1 -6,6 h-58 a6,6 0 0 1 -6,-6 v-13 a6,6 0 0 1 6,-6"/></clipPath></defs><mask id="satori_om-id-2-1-1-2"><rect x="309" y="85" width="68" height="23" fill="#fff" mask="url(#satori_om-id)"/><path width="70" height="25" fill="none" stroke="#000" stroke-width="2" d="M309.757,85.757 A6,6 0 0 1 314,84 h58 a6,6 0 0 1 6,6 v13 a6,6 0 0 1 -6,6 h-58 a6,6 0 0 1 -6,-6 v-13 A6,6 0 0 1 309.757,85.757"/></mask><path x="308" y="84" width="70" height="25" fill="#60a5fa15" d="M314,84 h58 a6,6 0 0 1 6,6 v13 a6,6 0 0 1 -6,6 h-58 a6,6 0 0 1 -6,-6 v-13 a6,6 0 0 1 6,-6" clip-path="url(#satori_cp-id)" mask="url(#satori_om-id)"/><path width="70" height="25" clip-path="url(#satori_bc-id-2-1-1-2)" fill="none" stroke="#60a5fa35" stroke-width="2" d="M309.757,85.757 A6,6 0 0 1 314,84 h58 a6,6 0 0 1 6,6 v13 a6,6 0 0 1 -6,6 h-58 a6,6 0 0 1 -6,-6 v-13 A6,6 0 0 1 309.757,85.757"/><g mask="url(#satori_om-id)" clip-path="url(#satori_cp-id)"><path fill="rgba(225,220,255,0.85)" d="M324.6 101L322.8 101L322.8 92.3L324.8 92.3L327.5 96.7Q327.8 97.0 328.0 97.4Q328.2 97.8 328.4 98.3L328.4 98.3Q328.5 98.6 328.6 98.8L328.6 98.8Q328.6 98.6 328.6 98.4L328.6 98.4Q328.6 97.8 328.6 97.3Q328.5 96.8 328.5 96.5L328.5 96.5L328.5 92.3L330.4 92.3L330.4 101L328.4 101L325.8 97.0Q325.6 96.5 325.3 96.1Q325.1 95.7 324.9 95.2L324.9 95.2Q324.7 94.9 324.5 94.5L324.5 94.5Q324.5 94.8 324.5 95.2L324.5 95.2Q324.6 95.7 324.6 96.2Q324.6 96.7 324.6 97.0L324.6 97.0L324.6 101ZM334.9 101.1L334.9 101.1Q333.9 101.1 333.1 100.7Q332.4 100.3 332.0 99.6Q331.6 98.8 331.6 97.8L331.6 97.8Q331.6 96.7 332.0 96.0Q332.4 95.2 333.1 94.8Q333.8 94.4 334.8 94.4L334.8 94.4Q335.4 94.4 336.0 94.6Q336.5 94.8 336.9 95.2Q337.4 95.6 337.6 96.2Q337.8 96.8 337.8 97.7L337.8 97.7L337.8 98.2L333.4 98.2Q333.4 98.7 333.6 99.0L333.6 99.0Q333.7 99.4 334.1 99.6Q334.4 99.8 334.9 99.8L334.9 99.8Q335.2 99.8 335.4 99.7Q335.7 99.6 335.9 99.5Q336.1 99.3 336.2 99.0L336.2 99.0L337.7 99.3Q337.6 99.9 337.2 100.3Q336.8 100.7 336.2 100.9Q335.6 101.1 334.9 101.1ZM333.4 97.1L333.4 97.1L336.2 97.1Q336.1 96.8 336.0 96.5L336.0 96.5Q335.9 96.1 335.5 95.9Q335.2 95.7 334.8 95.7L334.8 95.7Q334.3 95.7 334.0 95.9Q333.7 96.1 333.5 96.5L333.5 96.5Q333.4 96.7 333.4 97.1ZM340.4 101L338.5 101L340.7 97.6L338.7 94.4L340.6 94.4L341.2 95.5Q341.4 96.0 341.7 96.5L341.7 96.5Q341.7 96.6 341.8 96.8L341.8 96.8Q341.9 96.6 341.9 96.5L341.9 96.5Q342.1 96.0 342.4 95.5L342.4 95.5L343.1 94.4L344.9 94.4L342.9 97.7L345.0 101L343.1 101L342.4 99.8Q342.1 99.3 341.9 98.8L341.9 98.8Q341.8 98.6 341.8 98.5L341.8 98.5Q341.7 98.6 341.6 98.8L341.6 98.8Q341.4 99.3 341.1 99.8L341.1 99.8L340.4 101ZM348.0 94.4L349.3 94.4L349.3 95.8L348.0 95.8L348.0 99.1Q348.0 99.4 348.2 99.5Q348.3 99.7 348.6 99.7L348.6 99.7Q348.7 99.7 348.9 99.7Q349.1 99.6 349.2 99.6L349.2 99.6L349.4 100.9Q349.1 101.0 348.9 101.1Q348.6 101.1 348.3 101.1L348.3 101.1Q347.3 101.1 346.8 100.6Q346.3 100.1 346.3 99.2L346.3 99.2L346.3 95.8L345.4 95.8L345.4 94.4L346.3 94.4L346.3 92.9L348.0 92.9L348.0 94.4ZM351.7 101.1L351.7 101.1Q351.2 101.1 350.9 100.8Q350.6 100.5 350.6 100.1L350.6 100.1Q350.6 99.7 350.9 99.4Q351.2 99.1 351.7 99.1L351.7 99.1Q352.1 99.1 352.4 99.4Q352.7 99.7 352.7 100.1L352.7 100.1Q352.7 100.5 352.4 100.8Q352.1 101.1 351.7 101.1ZM354.4 101.3L354.4 94.4L356.2 94.4L356.2 101.3Q356.2 102.1 355.9 102.5Q355.6 103.0 355.0 103.2Q354.5 103.4 353.7 103.4L353.7 103.4L353.4 103.4L353.4 102.1L353.6 102.1Q354.0 102.1 354.2 101.9Q354.4 101.7 354.4 101.3L354.4 101.3ZM355.3 93.6L355.3 93.6Q354.9 93.6 354.6 93.3Q354.3 93.1 354.3 92.7L354.3 92.7Q354.3 92.3 354.6 92.1Q354.9 91.8 355.3 91.8L355.3 91.8Q355.7 91.8 356.0 92.0Q356.3 92.3 356.3 92.7L356.3 92.7Q356.3 93.1 356.0 93.3Q355.7 93.6 355.3 93.6ZM360.3 101.1L360.3 101.1Q359.5 101.1 358.9 100.9Q358.3 100.7 357.9 100.2Q357.5 99.8 357.4 99.2L357.4 99.2L359.0 98.9Q359.1 99.4 359.5 99.6Q359.8 99.8 360.3 99.8L360.3 99.8Q360.8 99.8 361.1 99.6Q361.4 99.5 361.4 99.2L361.4 99.2Q361.4 98.9 361.2 98.7Q361.0 98.6 360.6 98.5L360.6 98.5L359.4 98.3Q358.5 98.1 358.0 97.6Q357.5 97.1 357.5 96.4L357.5 96.4Q357.5 95.8 357.9 95.3Q358.2 94.9 358.8 94.6Q359.5 94.4 360.3 94.4L360.3 94.4Q361.1 94.4 361.6 94.6Q362.2 94.8 362.6 95.2Q362.9 95.6 363.0 96.1L363.0 96.1L361.5 96.4Q361.4 96.1 361.1 95.8Q360.8 95.6 360.3 95.6L360.3 95.6Q359.9 95.6 359.6 95.8Q359.3 96.0 359.3 96.3L359.3 96.3Q359.3 96.5 359.5 96.7Q359.7 96.9 360.1 97.0L360.1 97.0L361.3 97.2Q362.3 97.4 362.7 97.8Q363.2 98.3 363.2 99.0L363.2 99.0Q363.2 99.6 362.8 100.1Q362.4 100.6 361.8 100.9Q361.1 101.1 360.3 101.1Z "/></g></svg>